<?xml version="1.0" encoding="iso-8859-1"?>
<!-- Generator: Adobe Illustrator 18.1.1, SVG Export Plug-In . SVG Version: 6.00 Build 0)  -->
<svg xmlns="http://www.w3.org/2000/svg" xmlns:xlink="http://www.w3.org/1999/xlink" version="1.1" id="Capa_1" x="0px" y="0px" viewBox="0 0 304.588 304.588" style="enable-background:new 0 0 304.588 304.588;" xml:space="preserve" width="512px" height="512px">
<g>
	<g>
		<g>
			<path d="M97.055,95.175H0v201.849h201.844v-82.924V156.92V95.175H104.8H97.055z M112.746,143.507v40.777     h40.76c6.516,0,11.808,5.298,11.808,11.814c0,6.511-5.298,11.814-11.808,11.814h-40.76v40.766     c0,6.516-5.303,11.814-11.819,11.814s-11.819-5.298-11.819-11.814v-40.766H48.353c-6.516,0-11.814-5.303-11.814-11.814     c0-6.516,5.298-11.814,11.814-11.814h40.755v-40.777c0-6.511,5.303-11.808,11.819-11.808S112.746,136.996,112.746,143.507z" fill="#FFFFFF"/>
		</g>
		<g>
			<polygon points="118.229,7.563 118.229,82.731 215.273,82.731 215.273,193.916 304.588,193.916      304.588,7.563    " fill="#FFFFFF"/>
		</g>
	</g>
</g>
<g>
</g>
<g>
</g>
<g>
</g>
<g>
</g>
<g>
</g>
<g>
</g>
<g>
</g>
<g>
</g>
<g>
</g>
<g>
</g>
<g>
</g>
<g>
</g>
<g>
</g>
<g>
</g>
<g>
</g>
</svg>
