<?xml version="1.0" encoding="iso-8859-1"?>
<!-- Generator: Adobe Illustrator 18.1.1, SVG Export Plug-In . SVG Version: 6.00 Build 0)  -->
<svg xmlns="http://www.w3.org/2000/svg" xmlns:xlink="http://www.w3.org/1999/xlink" version="1.1" id="Capa_1" x="0px" y="0px" viewBox="0 0 152.851 152.851" style="enable-background:new 0 0 152.851 152.851;" xml:space="preserve" width="512px" height="512px">
<g>
	<g>
		<g>
			<path d="M92.664,134.95c0-13.783,8.562-25.586,20.627-30.443c-0.955-0.871-1.862-1.82-2.87-2.596     c-0.823-0.621-1.814-1.205-2.781-1.366c-3.347-0.525-4.815-1.712-5.597-4.988c-1.038-4.326-1.772-8.616-0.871-13.103     c0.376-1.963,1.092-3.21,2.995-3.956c3.95-1.545,7.84-3.258,11.743-4.911c2.918-1.235,3.109-2.261,2.053-5.281     c-3.359-9.523-5.865-19.201-6.671-29.387c-0.519-6.426-0.352-12.996-1.909-19.315h-0.245c-0.125-0.579-0.191-1.17-0.358-1.742     C105.958,6.728,93.995,0.672,83.976,0.039c-0.084-0.006-0.161-0.024-0.245-0.03c-0.77-0.042-1.492,0.066-2.25,0.113     c-4.231,0.585-7.691,3.252-11.707,4.433c-5.233,1.533-8.443,6.337-10.4,11.534c-2.775,7.357-2.25,15.204-2.87,22.829     c-0.811,10.185-3.306,19.864-6.671,29.387c-1.05,3.019-0.871,4.052,2.053,5.281c3.89,1.653,7.787,3.365,11.749,4.911     c1.897,0.746,2.613,1.987,2.995,3.956c0.895,4.487,0.161,8.783-0.871,13.103c-0.794,3.282-2.255,4.463-5.597,4.988     c-0.979,0.149-1.957,0.74-2.787,1.366c-1.85,1.414-3.353,3.461-5.394,4.392c-7.19,3.264-14.428,6.408-21.809,9.141     c-11.343,4.195-18.861,11.486-20.705,23.82c24.786,0,49.567,0,74.353,0c0.06,0,0.119,0,0.161,0c3.007,0,6.015,0,9.022,0     C92.79,137.85,92.664,136.418,92.664,134.95z" fill="#FFFFFF"/>
		</g>
		<polygon points="143.383,131.967 128.465,131.967 128.465,117.05 122.499,117.05 122.499,131.967     107.581,131.967 107.581,137.934 122.499,137.934 122.499,152.851 128.465,152.851 128.465,137.934 143.383,137.934   " fill="#FFFFFF"/>
	</g>
</g>
<g>
</g>
<g>
</g>
<g>
</g>
<g>
</g>
<g>
</g>
<g>
</g>
<g>
</g>
<g>
</g>
<g>
</g>
<g>
</g>
<g>
</g>
<g>
</g>
<g>
</g>
<g>
</g>
<g>
</g>
</svg>
