<?xml version="1.0" encoding="iso-8859-1"?>
<!-- Generator: Adobe Illustrator 16.0.0, SVG Export Plug-In . SVG Version: 6.00 Build 0)  -->
<!DOCTYPE svg PUBLIC "-//W3C//DTD SVG 1.1//EN" "http://www.w3.org/Graphics/SVG/1.1/DTD/svg11.dtd">
<svg xmlns="http://www.w3.org/2000/svg" xmlns:xlink="http://www.w3.org/1999/xlink" version="1.1" id="Capa_1" x="0px" y="0px" width="512px" height="512px" viewBox="0 0 209.34 209.341" style="enable-background:new 0 0 209.34 209.341;" xml:space="preserve">
<g>
	<g>
		<path d="M189.565,105.797c-0.005-2.063-0.079-26.805-0.809-51.241c-0.446-14.951-1.049-26.876-1.789-35.446    c-0.452-5.247-0.945-9.169-1.508-11.988C184.963,4.633,184.04,0,180.231,0c-0.264,0-0.529,0.027-0.788,0.081    c-2.086,0.433-4.038,1.809-8.515,14.957c-2.707,7.95-5.682,18.371-8.375,29.344c-3.199,13.025-10.45,45.171-8.693,62.3    c1.051,10.247,5.42,12.398,8.898,12.398c0.066,0,9.562,0.035,10.33,0.053c-0.225,8.251-1.685,20.244-3.103,31.891    c-1.923,15.793-3.912,32.123-3.239,41.683c0.74,10.532,7.784,14.269,13.59,14.269c4.16,0,8.408-1.773,11.363-4.744    c2.646-2.658,4.092-6.108,4.074-9.713C195.713,180.63,189.943,110.386,189.565,105.797z M186.915,197.47    c-1.69,1.699-4.211,2.755-6.578,2.755c-4.06,0-6.496-2.839-6.857-7.992c-0.627-8.914,1.322-24.918,3.207-40.395    c1.723-14.152,3.352-27.521,3.168-36.118c-0.039-1.836-1.539-3.303-3.374-3.303c-2.558,0-11.683-0.14-13.72-0.088    c-0.411,0-0.801-0.685-1.057-1.259c-2.99-6.748-0.953-28.281,5.317-56.2c4.323-19.249,9.206-35.262,12.353-43.342    c0.893,6.409,1.998,19.623,2.741,46.857c0.657,24.049,0.702,47.329,0.702,47.561c0,0.092,0.004,0.182,0.012,0.272    c0.061,0.744,6.137,74.565,6.196,86.335C189.036,194.854,187.883,196.496,186.915,197.47z" fill="#F10E29"/>
		<path d="M141.769,19.198c0-1.864-1.511-3.375-3.375-3.375s-3.375,1.511-3.375,3.375c0,11.398,0.241,22.262,0.435,30.99    c0.047,2.161,0.092,4.146,0.127,5.945l-8.203,0.12V20.848c0-1.864-1.511-3.375-3.375-3.375c-1.863,0-3.375,1.511-3.375,3.375    v35.505l-7.705,0.113V20.848c0-1.864-1.512-3.375-3.375-3.375c-1.864,0-3.375,1.511-3.375,3.375v35.718l-7.498,0.11V18.067    c0-1.864-1.511-3.375-3.375-3.375c-1.864,0-3.375,1.511-3.375,3.375v44.631c0,11.463,8.807,19.181,22.743,20.323v28.529    c-2.438,0.037-3.768,0.075-3.793,0.076c-1.633,0.048-2.998,1.258-3.238,2.874c-2.327,15.54-7.292,56.291-6.887,76.15    c0.247,12.049,8.139,16.324,14.822,16.324c7.765,0,16.399-5.707,16.813-14.926c0.518-11.547-2.547-52.911-3.856-70.574    c-0.237-3.217-0.416-5.613-0.499-6.847c-0.119-1.772-1.591-3.149-3.367-3.149c-1.145,0-2.226,0.004-3.242,0.008V82.998    c12.524-1.381,21.008-10.998,21.008-19.7c0-3.098-0.098-7.582-0.225-13.259C142.008,41.343,141.769,30.522,141.769,19.198z     M121.793,121.973c1.301,17.543,4.346,58.629,3.846,69.773c-0.227,5.072-5.391,8.478-10.07,8.478c-5.005,0-7.947-3.54-8.074-9.712    c-0.354-17.408,3.79-53.895,6.403-72.199c1.776-0.029,4.353-0.063,7.619-0.076C121.596,119.305,121.689,120.561,121.793,121.973z     M118.331,76.423c-9.271,0-19.157-3.435-19.635-12.997l36.979-0.543c0,0.141,0.002,0.281,0.002,0.416    C135.676,69.367,128.099,76.423,118.331,76.423z" fill="#F10E29"/>
		<path d="M45.146,11.939c-17.413,0-31.579,17.316-31.579,38.6c0,10.075,3.239,19.241,9.122,25.809    c4.965,5.545,11.493,8.957,18.669,9.848v27.72c-2.439,0.037-3.768,0.074-3.793,0.076c-1.633,0.048-2.998,1.258-3.239,2.873    c-2.327,15.541-7.292,56.291-6.887,76.15c0.247,12.049,8.139,16.325,14.822,16.325c7.764,0,16.4-5.707,16.814-14.926    c0.517-11.547-2.548-52.911-3.857-70.575c-0.238-3.216-0.416-5.613-0.499-6.846c-0.119-1.772-1.591-3.149-3.367-3.149    c-1.145,0-2.226,0.003-3.243,0.009V86.292c7.502-0.723,14.341-4.186,19.497-9.943c5.882-6.569,9.122-15.734,9.122-25.809    C76.725,29.255,62.559,11.939,45.146,11.939z M48.485,124.339c1.3,17.543,4.345,58.628,3.846,69.772    c-0.227,5.072-5.391,8.479-10.07,8.479c-5.004,0-7.947-3.54-8.074-9.712c-0.355-17.408,3.79-53.896,6.403-72.199    c1.777-0.03,4.352-0.063,7.619-0.077C48.287,121.671,48.38,122.926,48.485,124.339z M45.146,79.689    c-14.387,0-24.829-12.259-24.829-29.15c0-17.562,11.138-31.85,24.829-31.85s24.83,14.288,24.83,31.85    C69.975,67.429,59.533,79.689,45.146,79.689z" fill="#F10E29"/>
	</g>
</g>
<g>
</g>
<g>
</g>
<g>
</g>
<g>
</g>
<g>
</g>
<g>
</g>
<g>
</g>
<g>
</g>
<g>
</g>
<g>
</g>
<g>
</g>
<g>
</g>
<g>
</g>
<g>
</g>
<g>
</g>
</svg>
