<?xml version="1.0" encoding="iso-8859-1"?>
<!-- Generator: Adobe Illustrator 19.0.0, SVG Export Plug-In . SVG Version: 6.00 Build 0)  -->
<svg xmlns="http://www.w3.org/2000/svg" xmlns:xlink="http://www.w3.org/1999/xlink" version="1.1" id="Layer_1" x="0px" y="0px" viewBox="0 0 512 512" style="enable-background:new 0 0 512 512;" xml:space="preserve" width="512px" height="512px">
<g>
	<g>
		<g>
			<circle cx="256" cy="256" r="85.333" fill="#FFFFFF"/>
			<path d="M501.333,234.667h-54.592c-9.875-88.837-80.561-159.533-169.408-169.409V10.667C277.333,4.771,272.563,0,266.667,0     h-21.333c-5.896,0-10.667,4.771-10.667,10.667v54.591C145.82,75.134,75.134,145.829,65.259,234.667H10.667     C4.771,234.667,0,239.438,0,245.333v21.333c0,5.896,4.771,10.667,10.667,10.667h54.592     c9.875,88.837,80.561,159.533,169.408,169.409v54.591c0,5.896,4.771,10.667,10.667,10.667h21.333     c5.896,0,10.667-4.771,10.667-10.667v-54.591c88.846-9.876,159.533-80.572,169.408-169.409h54.592     c5.896,0,10.667-4.771,10.667-10.667v-21.333C512,239.438,507.229,234.667,501.333,234.667z M256,405.333     c-82.333,0-149.333-66.99-149.333-149.333s67-149.333,149.333-149.333S405.333,173.656,405.333,256S338.333,405.333,256,405.333z     " fill="#FFFFFF"/>
		</g>
	</g>
</g>
<g>
</g>
<g>
</g>
<g>
</g>
<g>
</g>
<g>
</g>
<g>
</g>
<g>
</g>
<g>
</g>
<g>
</g>
<g>
</g>
<g>
</g>
<g>
</g>
<g>
</g>
<g>
</g>
<g>
</g>
</svg>
