<?xml version="1.0" encoding="utf-8"?>
<!-- Svg Vector Icons : http://www.onlinewebfonts.com/icon -->
<!DOCTYPE svg PUBLIC "-//W3C//DTD SVG 1.1//EN" "http://www.w3.org/Graphics/SVG/1.1/DTD/svg11.dtd">
<svg version="1.1" xmlns="http://www.w3.org/2000/svg" xmlns:xlink="http://www.w3.org/1999/xlink" x="0px" y="0px" viewBox="0 0 1000 1000" enable-background="new 0 0 1000 1000" xml:space="preserve">
<metadata> Svg Vector Icons : http://www.onlinewebfonts.com/icon </metadata>
<g><path d="M901.4,875.7l3.1,3.2c1.2,1.2,2.4,2.5,3.6,3.7l1.6,1.6c0.8,0.8,1.7,1.7,2.5,2.5l2.9,3c0.7,0.7,1.4,1.4,2.1,2.1l11.3,11.5c0.9,0.9,1.8,1.8,2.6,2.7l3.9,4c0.6,0.6,1.1,1.2,1.7,1.7l5.3,5.4c0.8,0.8,1.6,1.6,2.4,2.4l0.3,0.3c1.4,1.5,2.8,2.9,4.2,4.3l4.5,4.6c1,1,2,2,2.9,3l1.4,1.4c0.4,0.4,0.8,0.8,1.2,1.2l0.3,0.3c0.5,0.5,1,1,1.4,1.4l1.9,2c0.3,0.4,0.7,0.7,1,1l3.7,3.7c0.2,0.2,0.5,0.5,0.7,0.7l0.3,0.3c0.2,0.2,0.4,0.4,0.5,0.5l0.4,0.5c9.2,9.3,9,24.3-0.3,33.5l-5.1,5c-9.3,9.2-24.3,9-33.5-0.3L796.6,846.6c-0.3-0.3-0.5-0.6-0.8-0.9l0,0l0,0l0,0c-25,20.1-56.8,32.1-91.4,32.1c-80.7,0-146.2-65.5-146.2-146.2c0-80.7,65.5-146.2,146.2-146.2c80.8,0,146.2,65.4,146.2,146.2c0,26.7-7.2,51.8-19.7,73.3l0,0l0,0l0,0c0,0,0,0,0,0c0.4,0.2,0.7,0.5,1.1,0.7c0.1,0,0.1,0.1,0.2,0.1c0.3,0.2,0.6,0.4,0.9,0.7c0.1,0.1,0.2,0.1,0.3,0.2c0.3,0.2,0.5,0.4,0.8,0.7c0.1,0.1,0.2,0.2,0.3,0.2c0.3,0.3,0.7,0.6,1,0.9l0.9,0.9c0.2,0.2,0.5,0.5,0.8,0.8l0.2,0.2c0.2,0.2,0.5,0.5,0.8,0.8l0.5,0.5c0.2,0.2,0.4,0.4,0.6,0.6l0.5,0.5c0.2,0.2,0.3,0.3,0.5,0.5l0.4,0.4c0.7,0.7,1.4,1.4,2.2,2.2l1.1,1.1c0.3,0.3,0.6,0.7,1,1l0.2,0.2c0.7,0.7,1.4,1.4,2.1,2.1l0.7,0.7c0.2,0.2,0.4,0.4,0.5,0.5l2,2.1c0.2,0.2,0.5,0.5,0.7,0.7l0.9,0.9c1.7,1.8,3.6,3.7,5.5,5.6l3.1,3.2c3.2,3.3,6.7,6.8,10.3,10.5l0.5,0.5c5.6,5.7,11.6,11.9,17.8,18.1c2.8,2.8,5.6,5.7,8.4,8.5l1.4,1.4C899.7,874,900.6,874.8,901.4,875.7z M789.8,830.6c0-0.2,0-0.4,0-0.5C789.8,830.2,789.8,830.4,789.8,830.6z M795.2,845.1c-0.1-0.1-0.2-0.2-0.2-0.3C795.1,844.9,795.2,845,795.2,845.1z M794.5,844.2c-0.1-0.1-0.2-0.2-0.3-0.3C794.4,844,794.5,844.1,794.5,844.2z M793.9,843.3c-0.1-0.1-0.2-0.3-0.3-0.4C793.7,843,793.8,843.2,793.9,843.3z M793.3,842.3c-0.1-0.1-0.2-0.3-0.3-0.4C793.1,842.1,793.2,842.2,793.3,842.3z M792.7,841.3c-0.1-0.1-0.2-0.3-0.2-0.4C792.5,841.1,792.6,841.2,792.7,841.3z M792.2,840.3c-0.1-0.1-0.1-0.3-0.2-0.4C792,840,792.1,840.2,792.2,840.3z M791.7,839.3c-0.1-0.2-0.1-0.3-0.2-0.5C791.6,839,791.6,839.2,791.7,839.3z M791.3,838.3c-0.1-0.2-0.1-0.3-0.2-0.5C791.2,837.9,791.2,838.1,791.3,838.3z M790.9,837.2c-0.1-0.2-0.1-0.3-0.2-0.5C790.8,836.9,790.9,837,790.9,837.2z M790.6,836.1c0-0.2-0.1-0.3-0.1-0.5C790.5,835.8,790.6,836,790.6,836.1z M790.3,835c0-0.2-0.1-0.3-0.1-0.5C790.3,834.7,790.3,834.9,790.3,835z M790.1,833.9c0-0.2-0.1-0.3-0.1-0.5C790.1,833.6,790.1,833.8,790.1,833.9z M790,832.8c0-0.2,0-0.4-0.1-0.5C789.9,832.5,789.9,832.7,790,832.8z M789.9,831.7c0-0.2,0-0.4,0-0.5C789.8,831.4,789.8,831.5,789.9,831.7z M796.9,813.1c-0.3,0.3-0.6,0.6-0.8,0.9C796.3,813.7,796.6,813.4,796.9,813.1z M795.8,814.3c-0.2,0.2-0.4,0.4-0.5,0.6C795.4,814.7,795.6,814.5,795.8,814.3z M795,815.2c-0.1,0.2-0.3,0.4-0.4,0.6C794.7,815.6,794.8,815.4,795,815.2z M794.2,816.2c-0.1,0.2-0.3,0.4-0.4,0.5C794,816.6,794.1,816.4,794.2,816.2z M793.6,817.2c-0.1,0.2-0.2,0.4-0.3,0.5C793.3,817.5,793.5,817.4,793.6,817.2z M793,818.2c-0.1,0.2-0.2,0.4-0.3,0.5C792.7,818.5,792.9,818.4,793,818.2z M792.4,819.2c-0.1,0.2-0.2,0.4-0.3,0.5C792.2,819.5,792.3,819.4,792.4,819.2z M791.9,820.2c-0.1,0.2-0.2,0.4-0.2,0.5C791.7,820.6,791.8,820.4,791.9,820.2z M791.5,821.3c-0.1,0.2-0.1,0.4-0.2,0.6C791.3,821.6,791.4,821.5,791.5,821.3z M791.1,822.3c-0.1,0.2-0.1,0.4-0.2,0.6C790.9,822.7,791,822.5,791.1,822.3z M790.7,823.4c-0.1,0.2-0.1,0.4-0.2,0.6C790.6,823.8,790.7,823.6,790.7,823.4z M790.4,824.5c0,0.2-0.1,0.4-0.1,0.6C790.4,824.9,790.4,824.7,790.4,824.5z M790.2,825.6c0,0.2-0.1,0.4-0.1,0.6C790.1,826,790.2,825.8,790.2,825.6z M790,826.7c0,0.2,0,0.4-0.1,0.6C790,827.1,790,826.9,790,826.7z M789.9,827.8c0,0.2,0,0.4,0,0.6C789.9,828.2,789.9,828,789.9,827.8z M789.8,828.9c0,0.2,0,0.4,0,0.5C789.8,829.3,789.8,829.1,789.8,828.9z M702.3,621.3c-61.7,0-111.7,50-111.7,111.7c0,61.7,50,111.7,111.7,111.7S814,794.7,814,733C814,671.3,764,621.3,702.3,621.3z M801.9,808.1c0.3-0.3,0.5-0.5,0.8-0.8C802.5,807.6,802.2,807.9,801.9,808.1z M803,807.1c0.2-0.2,0.4-0.3,0.6-0.5C803.4,806.8,803.2,807,803,807.1z M804,806.4c0.2-0.1,0.4-0.3,0.6-0.4C804.3,806.1,804.1,806.2,804,806.4z M804.9,805.7c0.2-0.1,0.4-0.3,0.6-0.4C805.3,805.4,805.1,805.6,804.9,805.7z M805.8,805.1c0.2-0.1,0.4-0.3,0.6-0.4C806.2,804.8,806,804.9,805.8,805.1z M806.7,804.5c0.3-0.2,0.6-0.3,0.9-0.5C807.4,804.2,807,804.3,806.7,804.5z M807.9,803.9c0.2-0.1,0.5-0.2,0.7-0.3C808.4,803.6,808.2,803.7,807.9,803.9z M809,803.3c0.2-0.1,0.4-0.2,0.6-0.2C809.4,803.2,809.2,803.3,809,803.3z M810.1,802.9c0.2-0.1,0.4-0.1,0.6-0.2C810.4,802.8,810.3,802.9,810.1,802.9z M811.1,802.6c0.2-0.1,0.4-0.1,0.6-0.2C811.5,802.4,811.3,802.5,811.1,802.6z M812.1,802.2c0.2-0.1,0.4-0.1,0.6-0.2C812.5,802.1,812.3,802.2,812.1,802.2z M813.2,802c0.3-0.1,0.6-0.1,0.9-0.2C813.8,801.8,813.5,801.9,813.2,802z M814.7,801.7c0.2,0,0.3-0.1,0.5-0.1C815,801.6,814.8,801.7,814.7,801.7z M815.7,801.5c0.2,0,0.3,0,0.5-0.1C816,801.5,815.9,801.5,815.7,801.5z M816.8,801.4c0.1,0,0.3,0,0.4,0C817.1,801.4,816.9,801.4,816.8,801.4z M817.8,801.4c0.1,0,0.3,0,0.4,0C818.1,801.4,818,801.4,817.8,801.4z M818.9,801.4c0.1,0,0.1,0,0.2,0C819,801.4,819,801.4,818.9,801.4z M830,804.3c0.1,0,0.1,0.1,0.2,0.1C830.1,804.4,830.1,804.4,830,804.3z M820.8,801.5C820.8,801.5,820.8,801.5,820.8,801.5C820.8,801.5,820.8,801.5,820.8,801.5z M821.6,801.6c0.1,0,0.2,0,0.3,0C821.8,801.6,821.7,801.6,821.6,801.6z M822.6,801.7c0.1,0,0.2,0,0.3,0.1C822.8,801.8,822.7,801.7,822.6,801.7z M823.6,801.9c0.1,0,0.2,0,0.3,0.1C823.8,802,823.7,801.9,823.6,801.9z M824.6,802.2c0.1,0,0.1,0,0.1,0C824.7,802.2,824.7,802.2,824.6,802.2z M828.2,803.4c0.1,0,0.1,0.1,0.2,0.1C828.3,803.5,828.3,803.5,828.2,803.4z M829.1,803.9c0.1,0,0.1,0.1,0.2,0.1C829.2,803.9,829.2,803.9,829.1,803.9z M847.5,621.2c-17.1,0-30.9-13.8-30.9-30.9V481.6c-74.2,53.4-210.6,89.1-366.6,89.1c-154.2,0-289.2-34.9-364-87.3v108.9c49.2,25.4,185.6,86.7,360.9,90.1c37.5,4.8,28.1,52.4,10.9,55.1c-170.8,1.5-313.4-54-371.8-85.9v110.1c81.5,32.4,241.1,80.5,429.9,57.5c43.3-6.3,36.5,44.5,19.2,50.6c-211.9,35.4-415.4-19.1-485.7-65.4c-12.4-2.3-22.2-12.1-24.6-24.5c-0.2-0.4-0.3-0.8-0.4-1.2l0.1-1.1c-0.1-1.2-0.2-2.4-0.2-3.6V395.3c-0.2-2.1-0.3-4.2-0.3-6.4c0-2.1,0.1-4.3,0.3-6.4V206.7c0-1.6,0.1-3.3,0.4-4.8c-0.4-3.3-0.6-6.7-0.6-10C23.9,91.4,215.1,10,450.9,10c235.8,0,427,81.4,427,181.8c0,2.4-0.1,4.7-0.3,7.1c0.5,2.1,0.7,4.3,0.7,6.6v384.8C878.4,607.4,864.5,621.2,847.5,621.2z M85.9,373.3h1.1c-0.4,1.3-0.8,2.6-1.1,3.9v23.1c16.5,66.4,173.7,118.4,365.2,118.4c192.6,0,350.4-52.7,365.4-119.6v-20.9c-0.4-1.7-0.8-3.4-1.4-5h1.4v-87.5c-74.8,52.7-210.6,87.9-365.6,87.9c-154.6,0-290-35-365-87.4V373.3z M451.1,61.6c-202.5,0-366.6,58.2-366.6,130c0,71.8,164.1,130,366.6,130c202.5,0,366.6-58.2,366.6-130C817.7,119.8,653.6,61.6,451.1,61.6z"  fill="#FFFFFF"/></g>
</svg>