<?xml version="1.0" encoding="utf-8"?>
<!-- Generator: Adobe Illustrator 23.1.1, SVG Export Plug-In . SVG Version: 6.00 Build 0)  -->
<svg version="1.1" id="Calque_1" xmlns="http://www.w3.org/2000/svg" xmlns:xlink="http://www.w3.org/1999/xlink" x="0px" y="0px"
	 viewBox="0 0 19.4 19.4" style="enable-background:new 0 0 19.4 19.4;" xml:space="preserve">
<style type="text/css">
	.st0{fill:#023F5F;}
</style>
<path id="comment-edit" class="st0" d="M6.8,19.4c-0.5,0-1-0.4-1-1v-2.9H1.9c-1.1,0-1.9-0.9-1.9-1.9V1.9C0,0.9,0.9,0,1.9,0
	c0,0,0,0,0,0h15.5c1.1,0,1.9,0.9,1.9,1.9v11.6c0,1.1-0.9,1.9-1.9,1.9h-5.9l-3.6,3.6c-0.2,0.2-0.4,0.3-0.7,0.3L6.8,19.4 M15.5,11.6
	V9.7h-5.3l-1.9,1.9L15.5,11.6 M3.9,11.6h2.4L12.9,5c0.2-0.2,0.2-0.5,0-0.7c0,0,0,0,0,0l-1.7-1.7c-0.2-0.2-0.5-0.2-0.7,0c0,0,0,0,0,0
	L3.9,9.2V11.6z"/>
</svg>
