<?xml version="1.0" encoding="utf-8"?>
<!-- Generator: Adobe Illustrator 23.1.1, SVG Export Plug-In . SVG Version: 6.00 Build 0)  -->
<svg version="1.1" id="Calque_1" xmlns="http://www.w3.org/2000/svg" xmlns:xlink="http://www.w3.org/1999/xlink" x="0px" y="0px"
	 viewBox="0 0 24.7 24.5" style="enable-background:new 0 0 24.7 24.5;" xml:space="preserve">
<style type="text/css">
	.st0{fill:#023F5F;}
</style>
<g id="Groupe_2939" transform="translate(-314.244 -151.105)">
	<path id="Tracé_1080" class="st0" d="M319.2,172.3V172c0-0.7-0.6-1.3-1.3-1.3c0,0,0,0,0,0h-0.3V156h0.3c0.7,0,1.3-0.6,1.3-1.3
		c0,0,0,0,0,0v-0.3h14.7v0.3c0,0.7,0.6,1.3,1.3,1.3c0,0,0,0,0,0h0.3v4.2c0.6,0.2,1.2,0.4,1.7,0.7V156h0.3c0.7,0,1.3-0.6,1.3-1.3
		c0,0,0,0,0,0v-2.4c0-0.7-0.6-1.3-1.3-1.3c0,0,0,0,0,0h-2.4c-0.7,0-1.3,0.6-1.3,1.3v0v0.3h-14.7v-0.3c0-0.7-0.6-1.3-1.3-1.3
		c0,0,0,0,0,0h-2.4c-0.7,0-1.3,0.6-1.3,1.3v0v2.4c0,0.7,0.6,1.3,1.3,1.3c0,0,0,0,0,0h0.3v14.7h-0.3c-0.7,0-1.3,0.6-1.3,1.3v0v2.4
		c0,0.7,0.6,1.3,1.3,1.3c0,0,0,0,0,0h2.4c0.7,0,1.3-0.6,1.3-1.3c0,0,0,0,0,0V174h4.9c-0.3-0.5-0.5-1.1-0.7-1.7L319.2,172.3z
		 M335.1,152.4h2.4v2.4h-2.4V152.4z M315.5,154.7v-2.4h2.4v2.4H315.5z M317.9,174.4h-2.4V172h2.4V174.4z"/>
	<path id="Tracé_1081" class="st0" d="M338.7,164.4l-2.5-2.5c-0.1-0.1-0.3-0.2-0.5-0.2c-0.2,0-0.4,0.1-0.5,0.2l-9.8,9.9v3.5h3.6
		l9.8-9.9c0.1-0.1,0.2-0.3,0.2-0.5C339,164.7,338.9,164.5,338.7,164.4z"/>
</g>
</svg>
