<?xml version="1.0" encoding="utf-8"?>
<!-- Generator: Adobe Illustrator 23.1.1, SVG Export Plug-In . SVG Version: 6.00 Build 0)  -->
<svg version="1.1" id="Calque_1" xmlns="http://www.w3.org/2000/svg" xmlns:xlink="http://www.w3.org/1999/xlink" x="0px" y="0px"
	 viewBox="0 0 24.2 24.9" style="enable-background:new 0 0 24.2 24.9;" xml:space="preserve">
<style type="text/css">
	.st0{fill:#023F5F;}
</style>
<path id="Tracé_1058" class="st0" d="M23,0h-2.2c-0.6,0-1.2,0.5-1.2,1.2v0v2.2c0,0,0,0.1,0,0.1L3.3,20.4H1.2
	c-0.6,0-1.2,0.5-1.2,1.2v0v2.2c0,0.6,0.5,1.2,1.2,1.2l0,0h2.2c0.6,0,1.2-0.5,1.2-1.2v-2.2c0,0,0-0.1,0-0.1L20.8,4.5H23
	c0.6,0,1.2-0.5,1.2-1.2V1.2C24.2,0.5,23.6,0,23,0L23,0z M3.3,23.7H1.2v-2.2h2.2V23.7z M23,3.3h-2.2V1.2H23V3.3z"/>
</svg>
