<?xml version="1.0" encoding="utf-8"?>
<!-- Generator: Adobe Illustrator 23.1.1, SVG Export Plug-In . SVG Version: 6.00 Build 0)  -->
<svg version="1.1" id="Calque_1" xmlns="http://www.w3.org/2000/svg" xmlns:xlink="http://www.w3.org/1999/xlink" x="0px" y="0px"
	 viewBox="0 0 27.5 27.5" style="enable-background:new 0 0 27.5 27.5;" xml:space="preserve">
<style type="text/css">
	.st0{fill:#023F5F;}
</style>
<path id="Tracé_1059" class="st0" d="M26.2,11.4h-0.6c-1-4.8-4.8-8.6-9.6-9.6V1.2c0-0.7-0.5-1.2-1.2-1.2l0,0h-2.2
	c-0.7,0-1.2,0.5-1.2,1.2l0,0v0.6c-4.8,1-8.6,4.7-9.6,9.6H1.2c-0.7,0-1.2,0.5-1.2,1.2v2.2c0,0.7,0.5,1.2,1.2,1.2l0,0h0.6
	c0.9,4.9,4.7,8.7,9.6,9.6v0.5c0,0.7,0.5,1.2,1.2,1.2h2.3c0.7,0,1.2-0.5,1.2-1.2v-0.5c4.9-1,8.7-4.8,9.6-9.6h0.6
	c0.7,0,1.2-0.5,1.2-1.2l0,0v-2.2C27.5,11.9,26.9,11.4,26.2,11.4z M12.6,1.2h2.2v2.2h-2.2L12.6,1.2L12.6,1.2z M1.2,14.9v-2.2h2.2v2.2
	H1.2z M14.9,26.2h-2.2V24h2.2V26.2z M16.1,24.1L16.1,24.1c0-0.7-0.5-1.3-1.2-1.3l0,0h-2.2c-0.7,0-1.2,0.5-1.2,1.2l0,0v0.1
	c-4-0.9-7.1-4-8-8h0c0.7,0,1.2-0.5,1.2-1.2l0,0v-2.2c0-0.7-0.5-1.2-1.2-1.2l0,0h0c0.9-3.9,4-7,7.9-7.9c0,0.7,0.5,1.2,1.2,1.2h2.2
	c0.7,0,1.2-0.5,1.2-1.2c3.9,0.9,7,4,7.9,7.9h0c-0.7,0-1.2,0.5-1.2,1.2l0,0v2.2c0,0.7,0.5,1.2,1.2,1.2l0,0h0
	C23.1,20,20,23.1,16.1,24.1L16.1,24.1z M26.2,14.9H24v-2.2h2.2V14.9z"/>
</svg>
