<?xml version="1.0" encoding="utf-8"?>
<!-- Generator: Adobe Illustrator 23.1.1, SVG Export Plug-In . SVG Version: 6.00 Build 0)  -->
<svg version="1.1" id="Calque_1" xmlns="http://www.w3.org/2000/svg" xmlns:xlink="http://www.w3.org/1999/xlink" x="0px" y="0px"
	 viewBox="0 0 21.8 24.4" style="enable-background:new 0 0 21.8 24.4;" xml:space="preserve">
<style type="text/css">
	.st0{fill:#023F5F;}
</style>
<g>
	<g id="Groupe_1852">
		<g id="Groupe_125" transform="translate(0 0)">
			<g id="Groupe_124">
				<path id="Tracé_98" class="st0" d="M21,4.1h-2.8c-0.5,0-0.9,0.4-0.9,0.9v1l0,0l-3.1,2.3V8.1c0-0.5-0.4-0.9-0.9-0.9h-2.8
					c-0.4,0-0.7,0.3-0.8,0.7L5.6,3.6V0.9C5.6,0.4,5.2,0,4.7,0H1.9C1.4,0,1,0.4,1.1,0.9v3c0,0.5,0.4,0.9,0.9,0.9h0.3L1.4,19.6H0.9
					C0.4,19.6,0,20,0,20.5v3c0,0.5,0.4,0.9,0.9,0.9h2.8c0.5,0,0.9-0.4,0.9-0.9v-0.7l11.7-2.6v0.4c0,0.5,0.4,0.9,0.9,0.9h2.8
					c0.5,0,0.9-0.4,0.9-0.9c0,0,0,0,0,0v-3c0-0.5-0.4-0.9-0.9-0.9h-0.3l0.7-7.8H21c0.5,0,0.9-0.4,0.9-0.9V5
					C21.8,4.5,21.5,4.1,21,4.1 M11,8.6h1.9v0.6l0,0v0v1.4H11V8.6z M2.4,1.4h1.9v2.1H2.4V1.4z M3.2,23H1.3v-2.1h1.9V23z M19.5,20.1
					h-1.9V18h1.9L19.5,20.1z M18.1,16.7h-1c-0.5,0-0.9,0.4-0.9,0.9v0.9L4.5,21v-0.6c0-0.5-0.4-0.9-0.9-0.9H3L3.7,4.8h0.8l5.1,5.4
					v0.9c0,0.5,0.4,0.9,0.9,0.9h2.8c0.5,0,0.9-0.4,0.9-0.9v-0.8l3.1-2.3v0c0,0.5,0.4,0.9,0.9,0.9h0.6L18.1,16.7z M20.5,7.5h-1.9V5.5
					h1.9V7.5z"/>
			</g>
		</g>
	</g>
</g>
</svg>
