<?xml version="1.0" encoding="utf-8"?>
<!-- Generator: Adobe Illustrator 23.1.1, SVG Export Plug-In . SVG Version: 6.00 Build 0)  -->
<svg version="1.1" id="Calque_1" xmlns="http://www.w3.org/2000/svg" xmlns:xlink="http://www.w3.org/1999/xlink" x="0px" y="0px"
	 viewBox="0 0 16.8 18.6" style="enable-background:new 0 0 16.8 18.6;" xml:space="preserve">
<style type="text/css">
	.st0{fill:#023F5F;}
</style>
<g id="icon" transform="translate(-176.454 0.477)">
	<path id="icon-2" class="st0" d="M190.4,12.7c-0.7,0-1.3,0.3-1.8,0.7L182,9.5c0.1-0.2,0.1-0.4,0.1-0.7c0-0.2,0-0.4-0.1-0.7l6.6-3.8
		c1.1,1.1,2.9,1,3.9-0.1c0.5-0.5,0.8-1.2,0.8-1.9c0-1.5-1.2-2.8-2.7-2.8c-1.5,0-2.8,1.2-2.8,2.7c0,0,0,0.1,0,0.1
		c0,0.2,0,0.4,0.1,0.7l-6.6,3.8c-1.1-1.1-2.9-1-4,0.1c-1.1,1.1-1,2.9,0.1,4c1.1,1,2.8,1,3.8,0l6.6,3.9c0,0.2-0.1,0.4-0.1,0.6
		c0,1.5,1.2,2.7,2.7,2.7s2.7-1.2,2.7-2.7C193.1,13.9,191.9,12.7,190.4,12.7L190.4,12.7z"/>
</g>
</svg>
