<?xml version="1.0" encoding="utf-8"?>
<!-- Generator: Adobe Illustrator 23.1.1, SVG Export Plug-In . SVG Version: 6.00 Build 0)  -->
<svg version="1.1" id="Calque_1" xmlns="http://www.w3.org/2000/svg" xmlns:xlink="http://www.w3.org/1999/xlink" x="0px" y="0px"
	 viewBox="0 0 22 22.2" style="enable-background:new 0 0 22 22.2;" xml:space="preserve">
<style type="text/css">
	.st0{fill:#023F5F;}
</style>
<g id="Tracé_1915">
	<path class="st0" d="M18.3,22.2l-3.4-3.7c-3.3,1.9-7.3,1.8-10.5-0.3c-2.2-1.5-3.7-3.7-4.2-6.3c-0.5-2.6,0-5.3,1.5-7.5
		c3-4.6,9.2-5.8,13.8-2.8c4.4,2.9,5.7,8.8,3.1,13.3l3.4,3.6L18.3,22.2z M15.2,16.6l3.2,3.5l1.5-1.5l-3.3-3.4l0.3-0.5
		c2.6-3.9,1.5-9.1-2.3-11.7C10.8,0.3,5.5,1.4,2.9,5.3c-1.3,1.9-1.7,4.1-1.3,6.3s1.7,4.1,3.6,5.4c2.9,1.9,6.6,1.9,9.4,0L15.2,16.6z
		 M9.9,16.1c-3.4,0-6.2-2.8-6.2-6.2c0-3.4,2.8-6.2,6.2-6.2c3.4,0,6.2,2.8,6.2,6.2C16.1,13.4,13.4,16.1,9.9,16.1L9.9,16.1z M9.9,5.2
		c-2.6,0-4.7,2.1-4.7,4.7c0,2.6,2.1,4.7,4.7,4.7c2.6,0,4.7-2.1,4.7-4.7C14.6,7.4,12.5,5.2,9.9,5.2z"/>
</g>
</svg>
