<?xml version="1.0" encoding="UTF-8" standalone="no"?>
<!DOCTYPE svg PUBLIC "-//W3C//DTD SVG 1.1//EN"
 "http://www.w3.org/Graphics/SVG/1.1/DTD/svg11.dtd">
<!-- Generated by graphviz version 2.40.1 (20161225.0304)
 -->
<!-- Title: dependencies Pages: 1 -->
<svg width="8768pt" height="284pt"
 viewBox="0.00 0.00 8768.00 284.00" xmlns="http://www.w3.org/2000/svg" xmlns:xlink="http://www.w3.org/1999/xlink">
<g id="graph0" class="graph" transform="scale(1 1) rotate(0) translate(4 280)">
<title>dependencies</title>
<polygon fill="#ffffff" stroke="transparent" points="-4,4 -4,-280 8764,-280 8764,4 -4,4"/>
<text text-anchor="start" x="4359.0091" y="-42.4" font-family="sans-serif" font-weight="bold" font-size="14.00" fill="#000000">Legend</text>
<polygon fill="#ffffb3" stroke="transparent" points="4146,-10 4146,-30 4166,-30 4166,-10 4146,-10"/>
<text text-anchor="start" x="4169.629" y="-15.4" font-family="sans-serif" font-size="14.00" fill="#000000"> &#160;Declarations</text>
<polygon fill="#8dd3c7" stroke="transparent" points="4259,-10 4259,-30 4279,-30 4279,-10 4259,-10"/>
<text text-anchor="start" x="4282.7251" y="-15.4" font-family="sans-serif" font-size="14.00" fill="#000000"> &#160;Module</text>
<polygon fill="#80b1d3" stroke="transparent" points="4345,-10 4345,-30 4365,-30 4365,-10 4345,-10"/>
<text text-anchor="start" x="4368.7812" y="-15.4" font-family="sans-serif" font-size="14.00" fill="#000000"> &#160;Bootstrap</text>
<polygon fill="#fdb462" stroke="transparent" points="4442,-10 4442,-30 4462,-30 4462,-10 4442,-10"/>
<text text-anchor="start" x="4465.6732" y="-15.4" font-family="sans-serif" font-size="14.00" fill="#000000"> &#160;Providers</text>
<polygon fill="#fb8072" stroke="transparent" points="4538,-10 4538,-30 4558,-30 4558,-10 4538,-10"/>
<text text-anchor="start" x="4561.7258" y="-15.4" font-family="sans-serif" font-size="14.00" fill="#000000"> &#160;Exports</text>
<g id="clust1" class="cluster">
<title>cluster_AppModule</title>
<polygon fill="none" stroke="#000000" stroke-dasharray="1,5" points="8,-70 8,-268 8752,-268 8752,-70 8,-70"/>
</g>
<g id="clust2" class="cluster">
<title>cluster_AppModule_declarations</title>
<polygon fill="none" stroke="#000000" points="3007,-78 3007,-130 8744,-130 8744,-78 3007,-78"/>
</g>
<g id="clust37" class="cluster">
<title>cluster_AppModule_imports</title>
<polygon fill="none" stroke="#000000" points="631,-78 631,-130 2999,-130 2999,-78 631,-78"/>
</g>
<g id="clust39" class="cluster">
<title>cluster_AppModule_bootstrap</title>
<polygon fill="none" stroke="#000000" points="4249,-208 4249,-260 4373,-260 4373,-208 4249,-208"/>
</g>
<g id="clust40" class="cluster">
<title>cluster_AppModule_providers</title>
<polygon fill="none" stroke="#000000" points="16,-78 16,-130 623,-130 623,-78 16,-78"/>
</g>
<!-- AppComponent -->
<g id="node1" class="node">
<title>AppComponent</title>
<polygon fill="#ffffb3" stroke="#000000" points="8735.9399,-122 8630.0601,-122 8630.0601,-86 8735.9399,-86 8735.9399,-122"/>
<text text-anchor="middle" x="8683" y="-99.8" font-family="Times,serif" font-size="14.00" fill="#000000">AppComponent</text>
</g>
<!-- AppModule -->
<g id="node35" class="node">
<title>AppModule</title>
<polygon fill="#8dd3c7" stroke="#000000" points="4352.6571,-187 4349.6571,-191 4328.6571,-191 4325.6571,-187 4269.3429,-187 4269.3429,-151 4352.6571,-151 4352.6571,-187"/>
<text text-anchor="middle" x="4311" y="-164.8" font-family="Times,serif" font-size="14.00" fill="#000000">AppModule</text>
</g>
<!-- AppComponent&#45;&gt;AppModule -->
<g id="edge1" class="edge">
<title>AppComponent&#45;&gt;AppModule</title>
<path fill="none" stroke="#000000" d="M8683,-122.1985C8683,-146.3563 8683,-186 8683,-186 8683,-186 4362.8692,-186 4362.8692,-186"/>
<polygon fill="#000000" stroke="#000000" points="4362.8692,-182.5001 4352.8692,-186 4362.8692,-189.5001 4362.8692,-182.5001"/>
</g>
<!-- MapComponent -->
<g id="node2" class="node">
<title>MapComponent</title>
<polygon fill="#ffffb3" stroke="#000000" points="8612.4916,-122 8505.5084,-122 8505.5084,-86 8612.4916,-86 8612.4916,-122"/>
<text text-anchor="middle" x="8559" y="-99.8" font-family="Times,serif" font-size="14.00" fill="#000000">MapComponent</text>
</g>
<!-- MapComponent&#45;&gt;AppModule -->
<g id="edge2" class="edge">
<title>MapComponent&#45;&gt;AppModule</title>
<path fill="none" stroke="#000000" d="M8559,-122.3802C8559,-146.2785 8559,-185 8559,-185 8559,-185 4362.7014,-185 4362.7014,-185"/>
<polygon fill="#000000" stroke="#000000" points="4362.7014,-181.5001 4352.7014,-185 4362.7013,-188.5001 4362.7014,-181.5001"/>
</g>
<!-- HeaderComponent -->
<g id="node3" class="node">
<title>HeaderComponent</title>
<polygon fill="#ffffb3" stroke="#000000" points="8487.7437,-122 8366.2563,-122 8366.2563,-86 8487.7437,-86 8487.7437,-122"/>
<text text-anchor="middle" x="8427" y="-99.8" font-family="Times,serif" font-size="14.00" fill="#000000">HeaderComponent</text>
</g>
<!-- HeaderComponent&#45;&gt;AppModule -->
<g id="edge3" class="edge">
<title>HeaderComponent&#45;&gt;AppModule</title>
<path fill="none" stroke="#000000" d="M8427,-122.3228C8427,-145.6602 8427,-183 8427,-183 8427,-183 4362.7411,-183 4362.7411,-183"/>
<polygon fill="#000000" stroke="#000000" points="4362.7411,-179.5001 4352.7411,-183 4362.741,-186.5001 4362.7411,-179.5001"/>
</g>
<!-- VerticalToolbarComponent -->
<g id="node4" class="node">
<title>VerticalToolbarComponent</title>
<polygon fill="#ffffb3" stroke="#000000" points="8348.2338,-122 8177.7662,-122 8177.7662,-86 8348.2338,-86 8348.2338,-122"/>
<text text-anchor="middle" x="8263" y="-99.8" font-family="Times,serif" font-size="14.00" fill="#000000">VerticalToolbarComponent</text>
</g>
<!-- VerticalToolbarComponent&#45;&gt;AppModule -->
<g id="edge4" class="edge">
<title>VerticalToolbarComponent&#45;&gt;AppModule</title>
<path fill="none" stroke="#000000" d="M8263,-122.0908C8263,-145.1328 8263,-182 8263,-182 8263,-182 4362.7088,-182 4362.7088,-182"/>
<polygon fill="#000000" stroke="#000000" points="4362.7089,-178.5001 4352.7088,-182 4362.7088,-185.5001 4362.7089,-178.5001"/>
</g>
<!-- TableOfContentsComponent -->
<g id="node5" class="node">
<title>TableOfContentsComponent</title>
<polygon fill="#ffffb3" stroke="#000000" points="8159.7492,-122 7982.2508,-122 7982.2508,-86 8159.7492,-86 8159.7492,-122"/>
<text text-anchor="middle" x="8071" y="-99.8" font-family="Times,serif" font-size="14.00" fill="#000000">TableOfContentsComponent</text>
</g>
<!-- TableOfContentsComponent&#45;&gt;AppModule -->
<g id="edge5" class="edge">
<title>TableOfContentsComponent&#45;&gt;AppModule</title>
<path fill="none" stroke="#000000" d="M8071,-122.2479C8071,-145.0179 8071,-181 8071,-181 8071,-181 4362.9044,-181 4362.9044,-181"/>
<polygon fill="#000000" stroke="#000000" points="4362.9045,-177.5001 4352.9044,-181 4362.9044,-184.5001 4362.9045,-177.5001"/>
</g>
<!-- MapToolsComponent -->
<g id="node6" class="node">
<title>MapToolsComponent</title>
<polygon fill="#ffffb3" stroke="#000000" points="7964.3795,-122 7825.6205,-122 7825.6205,-86 7964.3795,-86 7964.3795,-122"/>
<text text-anchor="middle" x="7895" y="-99.8" font-family="Times,serif" font-size="14.00" fill="#000000">MapToolsComponent</text>
</g>
<!-- MapToolsComponent&#45;&gt;AppModule -->
<g id="edge6" class="edge">
<title>MapToolsComponent&#45;&gt;AppModule</title>
<path fill="none" stroke="#000000" d="M7895,-122.1554C7895,-144.3519 7895,-179 7895,-179 7895,-179 4362.8021,-179 4362.8021,-179"/>
<polygon fill="#000000" stroke="#000000" points="4362.8021,-175.5001 4352.8021,-179 4362.8021,-182.5001 4362.8021,-175.5001"/>
</g>
<!-- RoutingComponent -->
<g id="node7" class="node">
<title>RoutingComponent</title>
<polygon fill="#ffffb3" stroke="#000000" points="7807.451,-122 7680.549,-122 7680.549,-86 7807.451,-86 7807.451,-122"/>
<text text-anchor="middle" x="7744" y="-99.8" font-family="Times,serif" font-size="14.00" fill="#000000">RoutingComponent</text>
</g>
<!-- RoutingComponent&#45;&gt;AppModule -->
<g id="edge7" class="edge">
<title>RoutingComponent&#45;&gt;AppModule</title>
<path fill="none" stroke="#000000" d="M7744,-122.2921C7744,-144.2057 7744,-178 7744,-178 7744,-178 4362.8603,-178 4362.8603,-178"/>
<polygon fill="#000000" stroke="#000000" points="4362.8603,-174.5001 4352.8603,-178 4362.8602,-181.5001 4362.8603,-174.5001"/>
</g>
<!-- LegendComponent -->
<g id="node8" class="node">
<title>LegendComponent</title>
<polygon fill="#ffffb3" stroke="#000000" points="7662.8146,-122 7539.1854,-122 7539.1854,-86 7662.8146,-86 7662.8146,-122"/>
<text text-anchor="middle" x="7601" y="-99.8" font-family="Times,serif" font-size="14.00" fill="#000000">LegendComponent</text>
</g>
<!-- LegendComponent&#45;&gt;AppModule -->
<g id="edge8" class="edge">
<title>LegendComponent&#45;&gt;AppModule</title>
<path fill="none" stroke="#000000" d="M7601,-122.1686C7601,-143.498 7601,-176 7601,-176 7601,-176 4362.897,-176 4362.897,-176"/>
<polygon fill="#000000" stroke="#000000" points="4362.8971,-172.5001 4352.897,-176 4362.897,-179.5001 4362.8971,-172.5001"/>
</g>
<!-- DownloadComponent -->
<g id="node9" class="node">
<title>DownloadComponent</title>
<polygon fill="#ffffb3" stroke="#000000" points="7521.6512,-122 7382.3488,-122 7382.3488,-86 7521.6512,-86 7521.6512,-122"/>
<text text-anchor="middle" x="7452" y="-99.8" font-family="Times,serif" font-size="14.00" fill="#000000">DownloadComponent</text>
</g>
<!-- DownloadComponent&#45;&gt;AppModule -->
<g id="edge9" class="edge">
<title>DownloadComponent&#45;&gt;AppModule</title>
<path fill="none" stroke="#000000" d="M7452,-122.2843C7452,-143.3211 7452,-175 7452,-175 7452,-175 4362.7344,-175 4362.7344,-175"/>
<polygon fill="#000000" stroke="#000000" points="4362.7345,-171.5001 4352.7344,-175 4362.7344,-178.5001 4362.7345,-171.5001"/>
</g>
<!-- SidenaveLeftPrincipalComponent -->
<g id="node10" class="node">
<title>SidenaveLeftPrincipalComponent</title>
<polygon fill="#ffffb3" stroke="#000000" points="7364.0126,-122 7157.9874,-122 7157.9874,-86 7364.0126,-86 7364.0126,-122"/>
<text text-anchor="middle" x="7261" y="-99.8" font-family="Times,serif" font-size="14.00" fill="#000000">SidenaveLeftPrincipalComponent</text>
</g>
<!-- SidenaveLeftPrincipalComponent&#45;&gt;AppModule -->
<g id="edge10" class="edge">
<title>SidenaveLeftPrincipalComponent&#45;&gt;AppModule</title>
<path fill="none" stroke="#000000" d="M7261,-122.0267C7261,-142.7672 7261,-174 7261,-174 7261,-174 4362.7021,-174 4362.7021,-174"/>
<polygon fill="#000000" stroke="#000000" points="4362.7022,-170.5001 4352.7021,-174 4362.7021,-177.5001 4362.7022,-170.5001"/>
</g>
<!-- DrawComponent -->
<g id="node11" class="node">
<title>DrawComponent</title>
<polygon fill="#ffffb3" stroke="#000000" points="7140.4216,-122 7027.5784,-122 7027.5784,-86 7140.4216,-86 7140.4216,-122"/>
<text text-anchor="middle" x="7084" y="-99.8" font-family="Times,serif" font-size="14.00" fill="#000000">DrawComponent</text>
</g>
<!-- DrawComponent&#45;&gt;AppModule -->
<g id="edge11" class="edge">
<title>DrawComponent&#45;&gt;AppModule</title>
<path fill="none" stroke="#000000" d="M7084,-122.2228C7084,-142.3652 7084,-172 7084,-172 7084,-172 4362.8978,-172 4362.8978,-172"/>
<polygon fill="#000000" stroke="#000000" points="4362.8978,-168.5001 4352.8978,-172 4362.8978,-175.5001 4362.8978,-168.5001"/>
</g>
<!-- SocialShareComponent -->
<g id="node12" class="node">
<title>SocialShareComponent</title>
<polygon fill="#ffffb3" stroke="#000000" points="7010.1979,-122 6861.8021,-122 6861.8021,-86 7010.1979,-86 7010.1979,-122"/>
<text text-anchor="middle" x="6936" y="-99.8" font-family="Times,serif" font-size="14.00" fill="#000000">SocialShareComponent</text>
</g>
<!-- SocialShareComponent&#45;&gt;AppModule -->
<g id="edge12" class="edge">
<title>SocialShareComponent&#45;&gt;AppModule</title>
<path fill="none" stroke="#000000" d="M6936,-122.308C6936,-142.1455 6936,-171 6936,-171 6936,-171 4362.7625,-171 4362.7625,-171"/>
<polygon fill="#000000" stroke="#000000" points="4362.7625,-167.5001 4352.7625,-171 4362.7625,-174.5001 4362.7625,-167.5001"/>
</g>
<!-- MeasureComponent -->
<g id="node13" class="node">
<title>MeasureComponent</title>
<polygon fill="#ffffb3" stroke="#000000" points="6843.5269,-122 6714.4731,-122 6714.4731,-86 6843.5269,-86 6843.5269,-122"/>
<text text-anchor="middle" x="6779" y="-99.8" font-family="Times,serif" font-size="14.00" fill="#000000">MeasureComponent</text>
</g>
<!-- MeasureComponent&#45;&gt;AppModule -->
<g id="edge13" class="edge">
<title>MeasureComponent&#45;&gt;AppModule</title>
<path fill="none" stroke="#000000" d="M6779,-122.1061C6779,-141.3391 6779,-169 6779,-169 6779,-169 4362.8012,-169 4362.8012,-169"/>
<polygon fill="#000000" stroke="#000000" points="4362.8013,-165.5001 4352.8012,-169 4362.8012,-172.5001 4362.8013,-165.5001"/>
</g>
<!-- AltimetryComponent -->
<g id="node14" class="node">
<title>AltimetryComponent</title>
<polygon fill="#ffffb3" stroke="#000000" points="6695.7674,-122 6560.2326,-122 6560.2326,-86 6695.7674,-86 6695.7674,-122"/>
<text text-anchor="middle" x="6628" y="-99.8" font-family="Times,serif" font-size="14.00" fill="#000000">AltimetryComponent</text>
</g>
<!-- AltimetryComponent&#45;&gt;AppModule -->
<g id="edge14" class="edge">
<title>AltimetryComponent&#45;&gt;AppModule</title>
<path fill="none" stroke="#000000" d="M6628,-122.1686C6628,-141.0898 6628,-168 6628,-168 6628,-168 4362.6951,-168 4362.6951,-168"/>
<polygon fill="#000000" stroke="#000000" points="4362.6951,-164.5001 4352.6951,-168 4362.6951,-171.5001 4362.6951,-164.5001"/>
</g>
<!-- CommentComponent -->
<g id="node15" class="node">
<title>CommentComponent</title>
<polygon fill="#ffffb3" stroke="#000000" points="6542.0561,-122 6405.9439,-122 6405.9439,-86 6542.0561,-86 6542.0561,-122"/>
<text text-anchor="middle" x="6474" y="-99.8" font-family="Times,serif" font-size="14.00" fill="#000000">CommentComponent</text>
</g>
<!-- CommentComponent&#45;&gt;AppModule -->
<g id="edge15" class="edge">
<title>CommentComponent&#45;&gt;AppModule</title>
<path fill="none" stroke="#000000" d="M6474,-122.2222C6474,-140.8285 6474,-167 6474,-167 6474,-167 4362.7558,-167 4362.7558,-167"/>
<polygon fill="#000000" stroke="#000000" points="4362.7559,-163.5001 4352.7558,-167 4362.7558,-170.5001 4362.7559,-163.5001"/>
</g>
<!-- PrintComponent -->
<g id="node16" class="node">
<title>PrintComponent</title>
<polygon fill="#ffffb3" stroke="#000000" points="6387.0577,-122 6278.9423,-122 6278.9423,-86 6387.0577,-86 6387.0577,-122"/>
<text text-anchor="middle" x="6333" y="-99.8" font-family="Times,serif" font-size="14.00" fill="#000000">PrintComponent</text>
</g>
<!-- PrintComponent&#45;&gt;AppModule -->
<g id="edge16" class="edge">
<title>PrintComponent&#45;&gt;AppModule</title>
<path fill="none" stroke="#000000" d="M6333,-122.302C6333,-140.2699 6333,-165 6333,-165 6333,-165 4362.7682,-165 4362.7682,-165"/>
<polygon fill="#000000" stroke="#000000" points="4362.7682,-161.5001 4352.7682,-165 4362.7682,-168.5001 4362.7682,-161.5001"/>
</g>
<!-- GroupCarteComponent -->
<g id="node17" class="node">
<title>GroupCarteComponent</title>
<polygon fill="#ffffb3" stroke="#000000" points="6260.9172,-122 6113.0828,-122 6113.0828,-86 6260.9172,-86 6260.9172,-122"/>
<text text-anchor="middle" x="6187" y="-99.8" font-family="Times,serif" font-size="14.00" fill="#000000">GroupCarteComponent</text>
</g>
<!-- GroupCarteComponent&#45;&gt;AppModule -->
<g id="edge17" class="edge">
<title>GroupCarteComponent&#45;&gt;AppModule</title>
<path fill="none" stroke="#000000" d="M6187,-122.002C6187,-139.6754 6187,-164 6187,-164 6187,-164 4362.8132,-164 4362.8132,-164"/>
<polygon fill="#000000" stroke="#000000" points="4362.8133,-160.5001 4352.8132,-164 4362.8132,-167.5001 4362.8133,-160.5001"/>
</g>
<!-- GroupThematiqueComponent -->
<g id="node18" class="node">
<title>GroupThematiqueComponent</title>
<polygon fill="#ffffb3" stroke="#000000" points="6094.9678,-122 5911.0322,-122 5911.0322,-86 6094.9678,-86 6094.9678,-122"/>
<text text-anchor="middle" x="6003" y="-99.8" font-family="Times,serif" font-size="14.00" fill="#000000">GroupThematiqueComponent</text>
</g>
<!-- GroupThematiqueComponent&#45;&gt;AppModule -->
<g id="edge18" class="edge">
<title>GroupThematiqueComponent&#45;&gt;AppModule</title>
<path fill="none" stroke="#000000" d="M6003,-122.0225C6003,-139.3734 6003,-163 6003,-163 6003,-163 4362.825,-163 4362.825,-163"/>
<polygon fill="#000000" stroke="#000000" points="4362.825,-159.5001 4352.825,-163 4362.8249,-166.5001 4362.825,-159.5001"/>
</g>
<!-- SidenaveLeftSecondaireComponent -->
<g id="node19" class="node">
<title>SidenaveLeftSecondaireComponent</title>
<polygon fill="#ffffb3" stroke="#000000" points="5893.1601,-122 5674.8399,-122 5674.8399,-86 5893.1601,-86 5893.1601,-122"/>
<text text-anchor="middle" x="5784" y="-99.8" font-family="Times,serif" font-size="14.00" fill="#000000">SidenaveLeftSecondaireComponent</text>
</g>
<!-- SidenaveLeftSecondaireComponent&#45;&gt;AppModule -->
<g id="edge19" class="edge">
<title>SidenaveLeftSecondaireComponent&#45;&gt;AppModule</title>
<path fill="none" stroke="#000000" d="M5784,-122.0352C5784,-138.7344 5784,-161 5784,-161 5784,-161 4362.7113,-161 4362.7113,-161"/>
<polygon fill="#000000" stroke="#000000" points="4362.7113,-157.5001 4352.7113,-161 4362.7112,-164.5001 4362.7113,-157.5001"/>
</g>
<!-- ListGroupThematiqueComponent -->
<g id="node20" class="node">
<title>ListGroupThematiqueComponent</title>
<polygon fill="#ffffb3" stroke="#000000" points="5656.7464,-122 5451.2536,-122 5451.2536,-86 5656.7464,-86 5656.7464,-122"/>
<text text-anchor="middle" x="5554" y="-99.8" font-family="Times,serif" font-size="14.00" fill="#000000">ListGroupThematiqueComponent</text>
</g>
<!-- ListGroupThematiqueComponent&#45;&gt;AppModule -->
<g id="edge20" class="edge">
<title>ListGroupThematiqueComponent&#45;&gt;AppModule</title>
<path fill="none" stroke="#000000" d="M5554,-122.027C5554,-138.3976 5554,-160 5554,-160 5554,-160 4362.7123,-160 4362.7123,-160"/>
<polygon fill="#000000" stroke="#000000" points="4362.7123,-156.5001 4352.7123,-160 4362.7122,-163.5001 4362.7123,-156.5001"/>
</g>
<!-- ListGroupCarteComponent -->
<g id="node21" class="node">
<title>ListGroupCarteComponent</title>
<polygon fill="#ffffb3" stroke="#000000" points="5433.6951,-122 5264.3049,-122 5264.3049,-86 5433.6951,-86 5433.6951,-122"/>
<text text-anchor="middle" x="5349" y="-99.8" font-family="Times,serif" font-size="14.00" fill="#000000">ListGroupCarteComponent</text>
</g>
<!-- ListGroupCarteComponent&#45;&gt;AppModule -->
<g id="edge21" class="edge">
<title>ListGroupCarteComponent&#45;&gt;AppModule</title>
<path fill="none" stroke="#000000" d="M5349,-122.2819C5349,-137.9478 5349,-158 5349,-158 5349,-158 4362.9764,-158 4362.9764,-158"/>
<polygon fill="#000000" stroke="#000000" points="4362.9765,-154.5001 4352.9764,-158 4362.9764,-161.5001 4362.9765,-154.5001"/>
</g>
<!-- CoucheThematiqueComponent -->
<g id="node22" class="node">
<title>CoucheThematiqueComponent</title>
<polygon fill="#ffffb3" stroke="#000000" points="5246.4664,-122 5055.5336,-122 5055.5336,-86 5246.4664,-86 5246.4664,-122"/>
<text text-anchor="middle" x="5151" y="-99.8" font-family="Times,serif" font-size="14.00" fill="#000000">CoucheThematiqueComponent</text>
</g>
<!-- CoucheThematiqueComponent&#45;&gt;AppModule -->
<g id="edge22" class="edge">
<title>CoucheThematiqueComponent&#45;&gt;AppModule</title>
<path fill="none" stroke="#000000" d="M5151,-122.2396C5151,-137.5706 5151,-157 5151,-157 5151,-157 4362.9431,-157 4362.9431,-157"/>
<polygon fill="#000000" stroke="#000000" points="4362.9432,-153.5001 4352.9431,-157 4362.9431,-160.5001 4362.9432,-153.5001"/>
</g>
<!-- CarteThematiqueComponent -->
<g id="node23" class="node">
<title>CarteThematiqueComponent</title>
<polygon fill="#ffffb3" stroke="#000000" points="5037.0183,-122 4858.9817,-122 4858.9817,-86 5037.0183,-86 5037.0183,-122"/>
<text text-anchor="middle" x="4948" y="-99.8" font-family="Times,serif" font-size="14.00" fill="#000000">CarteThematiqueComponent</text>
</g>
<!-- CarteThematiqueComponent&#45;&gt;AppModule -->
<g id="edge23" class="edge">
<title>CarteThematiqueComponent&#45;&gt;AppModule</title>
<path fill="none" stroke="#000000" d="M4948,-122.1871C4948,-137.1824 4948,-156 4948,-156 4948,-156 4362.7953,-156 4362.7953,-156"/>
<polygon fill="#000000" stroke="#000000" points="4362.7954,-152.5001 4352.7953,-156 4362.7953,-159.5001 4362.7954,-152.5001"/>
</g>
<!-- MetadataComponent -->
<g id="node24" class="node">
<title>MetadataComponent</title>
<polygon fill="#ffffb3" stroke="#000000" points="4840.9173,-122 4707.0827,-122 4707.0827,-86 4840.9173,-86 4840.9173,-122"/>
<text text-anchor="middle" x="4774" y="-99.8" font-family="Times,serif" font-size="14.00" fill="#000000">MetadataComponent</text>
</g>
<!-- MetadataComponent&#45;&gt;AppModule -->
<g id="edge24" class="edge">
<title>MetadataComponent&#45;&gt;AppModule</title>
<path fill="none" stroke="#000000" d="M4774,-122.0511C4774,-136.373 4774,-154 4774,-154 4774,-154 4362.9048,-154 4362.9048,-154"/>
<polygon fill="#000000" stroke="#000000" points="4362.9048,-150.5001 4352.9048,-154 4362.9047,-157.5001 4362.9048,-150.5001"/>
</g>
<!-- ChartOverlayComponent -->
<g id="node25" class="node">
<title>ChartOverlayComponent</title>
<polygon fill="#ffffb3" stroke="#000000" points="4689.5225,-122 4532.4775,-122 4532.4775,-86 4689.5225,-86 4689.5225,-122"/>
<text text-anchor="middle" x="4611" y="-99.8" font-family="Times,serif" font-size="14.00" fill="#000000">ChartOverlayComponent</text>
</g>
<!-- ChartOverlayComponent&#45;&gt;AppModule -->
<g id="edge25" class="edge">
<title>ChartOverlayComponent&#45;&gt;AppModule</title>
<path fill="none" stroke="#000000" d="M4611,-122.2458C4611,-136.1772 4611,-153 4611,-153 4611,-153 4362.7137,-153 4362.7137,-153"/>
<polygon fill="#000000" stroke="#000000" points="4362.7137,-149.5001 4352.7137,-153 4362.7137,-156.5001 4362.7137,-149.5001"/>
</g>
<!-- ListDownloadLayersComponent -->
<g id="node26" class="node">
<title>ListDownloadLayersComponent</title>
<polygon fill="#ffffb3" stroke="#000000" points="4513.5168,-122 4314.4832,-122 4314.4832,-86 4513.5168,-86 4513.5168,-122"/>
<text text-anchor="middle" x="4414" y="-99.8" font-family="Times,serif" font-size="14.00" fill="#000000">ListDownloadLayersComponent</text>
</g>
<!-- ListDownloadLayersComponent&#45;&gt;AppModule -->
<g id="edge26" class="edge">
<title>ListDownloadLayersComponent&#45;&gt;AppModule</title>
<path fill="none" stroke="#000000" d="M4333.5351,-122.1061C4333.5351,-122.1061 4333.5351,-140.991 4333.5351,-140.991"/>
<polygon fill="#000000" stroke="#000000" points="4330.0351,-140.9909 4333.5351,-150.991 4337.0351,-140.991 4330.0351,-140.9909"/>
</g>
<!-- DescriptiveSheetComponent -->
<g id="node27" class="node">
<title>DescriptiveSheetComponent</title>
<polygon fill="#ffffb3" stroke="#000000" points="4296.4622,-122 4119.5378,-122 4119.5378,-86 4296.4622,-86 4296.4622,-122"/>
<text text-anchor="middle" x="4208" y="-99.8" font-family="Times,serif" font-size="14.00" fill="#000000">DescriptiveSheetComponent</text>
</g>
<!-- DescriptiveSheetComponent&#45;&gt;AppModule -->
<g id="edge27" class="edge">
<title>DescriptiveSheetComponent&#45;&gt;AppModule</title>
<path fill="none" stroke="#000000" d="M4282.8265,-122.1061C4282.8265,-122.1061 4282.8265,-140.991 4282.8265,-140.991"/>
<polygon fill="#000000" stroke="#000000" points="4279.3265,-140.9909 4282.8265,-150.991 4286.3265,-140.991 4279.3265,-140.9909"/>
</g>
<!-- OsmSheetComponent -->
<g id="node28" class="node">
<title>OsmSheetComponent</title>
<polygon fill="#ffffb3" stroke="#000000" points="4101.3767,-122 3962.6233,-122 3962.6233,-86 4101.3767,-86 4101.3767,-122"/>
<text text-anchor="middle" x="4032" y="-99.8" font-family="Times,serif" font-size="14.00" fill="#000000">OsmSheetComponent</text>
</g>
<!-- OsmSheetComponent&#45;&gt;AppModule -->
<g id="edge28" class="edge">
<title>OsmSheetComponent&#45;&gt;AppModule</title>
<path fill="none" stroke="#000000" d="M4032,-122.2458C4032,-136.1772 4032,-153 4032,-153 4032,-153 4259.2309,-153 4259.2309,-153"/>
<polygon fill="#000000" stroke="#000000" points="4259.2309,-156.5001 4269.2309,-153 4259.2308,-149.5001 4259.2309,-156.5001"/>
</g>
<!-- SearchComponent -->
<g id="node29" class="node">
<title>SearchComponent</title>
<polygon fill="#ffffb3" stroke="#000000" points="3944.9201,-122 3825.0799,-122 3825.0799,-86 3944.9201,-86 3944.9201,-122"/>
<text text-anchor="middle" x="3885" y="-99.8" font-family="Times,serif" font-size="14.00" fill="#000000">SearchComponent</text>
</g>
<!-- SearchComponent&#45;&gt;AppModule -->
<g id="edge29" class="edge">
<title>SearchComponent&#45;&gt;AppModule</title>
<path fill="none" stroke="#000000" d="M3885,-122.0511C3885,-136.373 3885,-154 3885,-154 3885,-154 4258.9876,-154 4258.9876,-154"/>
<polygon fill="#000000" stroke="#000000" points="4258.9877,-157.5001 4268.9876,-154 4258.9876,-150.5001 4258.9877,-157.5001"/>
</g>
<!-- SelectRoiComponent -->
<g id="node30" class="node">
<title>SelectRoiComponent</title>
<polygon fill="#ffffb3" stroke="#000000" points="3806.7674,-122 3671.2326,-122 3671.2326,-86 3806.7674,-86 3806.7674,-122"/>
<text text-anchor="middle" x="3739" y="-99.8" font-family="Times,serif" font-size="14.00" fill="#000000">SelectRoiComponent</text>
</g>
<!-- SelectRoiComponent&#45;&gt;AppModule -->
<g id="edge30" class="edge">
<title>SelectRoiComponent&#45;&gt;AppModule</title>
<path fill="none" stroke="#000000" d="M3739,-122.1871C3739,-137.1824 3739,-156 3739,-156 3739,-156 4258.9395,-156 4258.9395,-156"/>
<polygon fill="#000000" stroke="#000000" points="4258.9395,-159.5001 4268.9395,-156 4258.9394,-152.5001 4258.9395,-159.5001"/>
</g>
<!-- InfoComponent -->
<g id="node31" class="node">
<title>InfoComponent</title>
<polygon fill="#ffffb3" stroke="#000000" points="3653.1542,-122 3548.8458,-122 3548.8458,-86 3653.1542,-86 3653.1542,-122"/>
<text text-anchor="middle" x="3601" y="-99.8" font-family="Times,serif" font-size="14.00" fill="#000000">InfoComponent</text>
</g>
<!-- InfoComponent&#45;&gt;AppModule -->
<g id="edge31" class="edge">
<title>InfoComponent&#45;&gt;AppModule</title>
<path fill="none" stroke="#000000" d="M3601,-122.2396C3601,-137.5706 3601,-157 3601,-157 3601,-157 4259.237,-157 4259.237,-157"/>
<polygon fill="#000000" stroke="#000000" points="4259.237,-160.5001 4269.237,-157 4259.2369,-153.5001 4259.237,-160.5001"/>
</g>
<!-- ContextMenuComponent -->
<g id="node32" class="node">
<title>ContextMenuComponent</title>
<polygon fill="#ffffb3" stroke="#000000" points="3531.3243,-122 3372.6757,-122 3372.6757,-86 3531.3243,-86 3531.3243,-122"/>
<text text-anchor="middle" x="3452" y="-99.8" font-family="Times,serif" font-size="14.00" fill="#000000">ContextMenuComponent</text>
</g>
<!-- ContextMenuComponent&#45;&gt;AppModule -->
<g id="edge32" class="edge">
<title>ContextMenuComponent&#45;&gt;AppModule</title>
<path fill="none" stroke="#000000" d="M3452,-122.2819C3452,-137.9478 3452,-158 3452,-158 3452,-158 4259.2783,-158 4259.2783,-158"/>
<polygon fill="#000000" stroke="#000000" points="4259.2784,-161.5001 4269.2783,-158 4259.2783,-154.5001 4259.2784,-161.5001"/>
</g>
<!-- AddGeosignetComponent -->
<g id="node33" class="node">
<title>AddGeosignetComponent</title>
<polygon fill="#ffffb3" stroke="#000000" points="3355.2007,-122 3192.7993,-122 3192.7993,-86 3355.2007,-86 3355.2007,-122"/>
<text text-anchor="middle" x="3274" y="-99.8" font-family="Times,serif" font-size="14.00" fill="#000000">AddGeosignetComponent</text>
</g>
<!-- AddGeosignetComponent&#45;&gt;AppModule -->
<g id="edge33" class="edge">
<title>AddGeosignetComponent&#45;&gt;AppModule</title>
<path fill="none" stroke="#000000" d="M3274,-122.027C3274,-138.3976 3274,-160 3274,-160 3274,-160 4259.064,-160 4259.064,-160"/>
<polygon fill="#000000" stroke="#000000" points="4259.064,-163.5001 4269.064,-160 4259.064,-156.5001 4259.064,-163.5001"/>
</g>
<!-- ListGeosignetComponent -->
<g id="node34" class="node">
<title>ListGeosignetComponent</title>
<polygon fill="#ffffb3" stroke="#000000" points="3174.8725,-122 3015.1275,-122 3015.1275,-86 3174.8725,-86 3174.8725,-122"/>
<text text-anchor="middle" x="3095" y="-99.8" font-family="Times,serif" font-size="14.00" fill="#000000">ListGeosignetComponent</text>
</g>
<!-- ListGeosignetComponent&#45;&gt;AppModule -->
<g id="edge34" class="edge">
<title>ListGeosignetComponent&#45;&gt;AppModule</title>
<path fill="none" stroke="#000000" d="M3095,-122.0352C3095,-138.7344 3095,-161 3095,-161 3095,-161 4259.1425,-161 4259.1425,-161"/>
<polygon fill="#000000" stroke="#000000" points="4259.1426,-164.5001 4269.1425,-161 4259.1425,-157.5001 4259.1426,-164.5001"/>
</g>
<!-- AppComponent  -->
<g id="node51" class="node">
<title>AppComponent </title>
<polygon fill="#80b1d3" stroke="#000000" points="4365.439,-252 4256.561,-252 4256.561,-216 4365.439,-216 4365.439,-252"/>
<text text-anchor="middle" x="4311" y="-229.8" font-family="Times,serif" font-size="14.00" fill="#000000">AppComponent </text>
</g>
<!-- AppModule&#45;&gt;AppComponent  -->
<g id="edge50" class="edge">
<title>AppModule&#45;&gt;AppComponent </title>
<path fill="none" stroke="#000000" stroke-dasharray="1,5" d="M4311,-187.1061C4311,-187.1061 4311,-205.991 4311,-205.991"/>
<polygon fill="#000000" stroke="#000000" points="4307.5001,-205.9909 4311,-215.991 4314.5001,-205.991 4307.5001,-205.9909"/>
</g>
<!-- ShareButtonsModule.withConfig(args) -->
<g id="node36" class="node">
<title>ShareButtonsModule.withConfig(args)</title>
<polygon fill="#8dd3c7" stroke="#000000" points="2991.4012,-122 2988.4012,-126 2967.4012,-126 2964.4012,-122 2756.5988,-122 2756.5988,-86 2991.4012,-86 2991.4012,-122"/>
<text text-anchor="middle" x="2874" y="-99.8" font-family="Times,serif" font-size="14.00" fill="#000000">ShareButtonsModule.withConfig(args)</text>
</g>
<!-- ShareButtonsModule.withConfig(args)&#45;&gt;AppModule -->
<g id="edge35" class="edge">
<title>ShareButtonsModule.withConfig(args)&#45;&gt;AppModule</title>
<path fill="none" stroke="#000000" d="M2874,-122.0225C2874,-139.3734 2874,-163 2874,-163 2874,-163 4259.1582,-163 4259.1582,-163"/>
<polygon fill="#000000" stroke="#000000" points="4259.1582,-166.5001 4269.1582,-163 4259.1581,-159.5001 4259.1582,-166.5001"/>
</g>
<!-- NgpSortModule -->
<g id="node37" class="node">
<title>NgpSortModule</title>
<polygon fill="#8dd3c7" stroke="#000000" points="2738.4902,-122 2735.4902,-126 2714.4902,-126 2711.4902,-122 2631.5098,-122 2631.5098,-86 2738.4902,-86 2738.4902,-122"/>
<text text-anchor="middle" x="2685" y="-99.8" font-family="Times,serif" font-size="14.00" fill="#000000">NgpSortModule</text>
</g>
<!-- NgpSortModule&#45;&gt;AppModule -->
<g id="edge36" class="edge">
<title>NgpSortModule&#45;&gt;AppModule</title>
<path fill="none" stroke="#000000" d="M2685,-122.002C2685,-139.6754 2685,-164 2685,-164 2685,-164 4259.1725,-164 4259.1725,-164"/>
<polygon fill="#000000" stroke="#000000" points="4259.1726,-167.5001 4269.1725,-164 4259.1725,-160.5001 4259.1726,-167.5001"/>
</g>
<!-- ShareIconsModule -->
<g id="node38" class="node">
<title>ShareIconsModule</title>
<polygon fill="#8dd3c7" stroke="#000000" points="2613.7423,-122 2610.7423,-126 2589.7423,-126 2586.7423,-122 2492.2577,-122 2492.2577,-86 2613.7423,-86 2613.7423,-122"/>
<text text-anchor="middle" x="2553" y="-99.8" font-family="Times,serif" font-size="14.00" fill="#000000">ShareIconsModule</text>
</g>
<!-- ShareIconsModule&#45;&gt;AppModule -->
<g id="edge37" class="edge">
<title>ShareIconsModule&#45;&gt;AppModule</title>
<path fill="none" stroke="#000000" d="M2553,-122.302C2553,-140.2699 2553,-165 2553,-165 2553,-165 4259.2775,-165 4259.2775,-165"/>
<polygon fill="#000000" stroke="#000000" points="4259.2776,-168.5001 4269.2775,-165 4259.2775,-161.5001 4259.2776,-168.5001"/>
</g>
<!-- BrowserModule -->
<g id="node39" class="node">
<title>BrowserModule</title>
<polygon fill="#8dd3c7" stroke="#000000" points="2474.4734,-122 2471.4734,-126 2450.4734,-126 2447.4734,-122 2367.5266,-122 2367.5266,-86 2474.4734,-86 2474.4734,-122"/>
<text text-anchor="middle" x="2421" y="-99.8" font-family="Times,serif" font-size="14.00" fill="#000000">BrowserModule</text>
</g>
<!-- BrowserModule&#45;&gt;AppModule -->
<g id="edge38" class="edge">
<title>BrowserModule&#45;&gt;AppModule</title>
<path fill="none" stroke="#000000" d="M2421,-122.2222C2421,-140.8285 2421,-167 2421,-167 2421,-167 4259.322,-167 4259.322,-167"/>
<polygon fill="#000000" stroke="#000000" points="4259.322,-170.5001 4269.322,-167 4259.3219,-163.5001 4259.322,-170.5001"/>
</g>
<!-- AppRoutingModule -->
<g id="node40" class="node">
<title>AppRoutingModule</title>
<polygon fill="#8dd3c7" stroke="#000000" points="2349.2744,-122 2346.2744,-126 2325.2744,-126 2322.2744,-122 2220.7256,-122 2220.7256,-86 2349.2744,-86 2349.2744,-122"/>
<text text-anchor="middle" x="2285" y="-99.8" font-family="Times,serif" font-size="14.00" fill="#000000">AppRoutingModule</text>
</g>
<!-- AppRoutingModule&#45;&gt;AppModule -->
<g id="edge39" class="edge">
<title>AppRoutingModule&#45;&gt;AppModule</title>
<path fill="none" stroke="#000000" d="M2285,-122.1686C2285,-141.0898 2285,-168 2285,-168 2285,-168 4259.1492,-168 4259.1492,-168"/>
<polygon fill="#000000" stroke="#000000" points="4259.1492,-171.5001 4269.1492,-168 4259.1491,-164.5001 4259.1492,-171.5001"/>
</g>
<!-- ComponentMaterialModule -->
<g id="node41" class="node">
<title>ComponentMaterialModule</title>
<polygon fill="#8dd3c7" stroke="#000000" points="2202.3033,-122 2199.3033,-126 2178.3033,-126 2175.3033,-122 2029.6967,-122 2029.6967,-86 2202.3033,-86 2202.3033,-122"/>
<text text-anchor="middle" x="2116" y="-99.8" font-family="Times,serif" font-size="14.00" fill="#000000">ComponentMaterialModule</text>
</g>
<!-- ComponentMaterialModule&#45;&gt;AppModule -->
<g id="edge40" class="edge">
<title>ComponentMaterialModule&#45;&gt;AppModule</title>
<path fill="none" stroke="#000000" d="M2116,-122.1061C2116,-141.3391 2116,-169 2116,-169 2116,-169 4259.112,-169 4259.112,-169"/>
<polygon fill="#000000" stroke="#000000" points="4259.112,-172.5001 4269.112,-169 4259.1119,-165.5001 4259.112,-172.5001"/>
</g>
<!-- BrowserAnimationsModule -->
<g id="node42" class="node">
<title>BrowserAnimationsModule</title>
<polygon fill="#8dd3c7" stroke="#000000" points="2012.3019,-122 2009.3019,-126 1988.3019,-126 1985.3019,-122 1839.6981,-122 1839.6981,-86 2012.3019,-86 2012.3019,-122"/>
<text text-anchor="middle" x="1926" y="-99.8" font-family="Times,serif" font-size="14.00" fill="#000000">BrowserAnimationsModule</text>
</g>
<!-- BrowserAnimationsModule&#45;&gt;AppModule -->
<g id="edge41" class="edge">
<title>BrowserAnimationsModule&#45;&gt;AppModule</title>
<path fill="none" stroke="#000000" d="M1926,-122.308C1926,-142.1455 1926,-171 1926,-171 1926,-171 4259.0992,-171 4259.0992,-171"/>
<polygon fill="#000000" stroke="#000000" points="4259.0992,-174.5001 4269.0992,-171 4259.0991,-167.5001 4259.0992,-174.5001"/>
</g>
<!-- HttpClientModule -->
<g id="node43" class="node">
<title>HttpClientModule</title>
<polygon fill="#8dd3c7" stroke="#000000" points="1822.1611,-122 1819.1611,-126 1798.1611,-126 1795.1611,-122 1703.8389,-122 1703.8389,-86 1822.1611,-86 1822.1611,-122"/>
<text text-anchor="middle" x="1763" y="-99.8" font-family="Times,serif" font-size="14.00" fill="#000000">HttpClientModule</text>
</g>
<!-- HttpClientModule&#45;&gt;AppModule -->
<g id="edge42" class="edge">
<title>HttpClientModule&#45;&gt;AppModule</title>
<path fill="none" stroke="#000000" d="M1763,-122.2228C1763,-142.3652 1763,-172 1763,-172 1763,-172 4259.1628,-172 4259.1628,-172"/>
<polygon fill="#000000" stroke="#000000" points="4259.1629,-175.5001 4269.1628,-172 4259.1628,-168.5001 4259.1629,-175.5001"/>
</g>
<!-- FormsModule -->
<g id="node44" class="node">
<title>FormsModule</title>
<polygon fill="#8dd3c7" stroke="#000000" points="1685.8288,-122 1682.8288,-126 1661.8288,-126 1658.8288,-122 1590.1712,-122 1590.1712,-86 1685.8288,-86 1685.8288,-122"/>
<text text-anchor="middle" x="1638" y="-99.8" font-family="Times,serif" font-size="14.00" fill="#000000">FormsModule</text>
</g>
<!-- FormsModule&#45;&gt;AppModule -->
<g id="edge43" class="edge">
<title>FormsModule&#45;&gt;AppModule</title>
<path fill="none" stroke="#000000" d="M1638,-122.0267C1638,-142.7672 1638,-174 1638,-174 1638,-174 4259.2822,-174 4259.2822,-174"/>
<polygon fill="#000000" stroke="#000000" points="4259.2822,-177.5001 4269.2822,-174 4259.2821,-170.5001 4259.2822,-177.5001"/>
</g>
<!-- ReactiveFormsModule -->
<g id="node45" class="node">
<title>ReactiveFormsModule</title>
<polygon fill="#8dd3c7" stroke="#000000" points="1572.3047,-122 1569.3047,-126 1548.3047,-126 1545.3047,-122 1427.6953,-122 1427.6953,-86 1572.3047,-86 1572.3047,-122"/>
<text text-anchor="middle" x="1500" y="-99.8" font-family="Times,serif" font-size="14.00" fill="#000000">ReactiveFormsModule</text>
</g>
<!-- ReactiveFormsModule&#45;&gt;AppModule -->
<g id="edge44" class="edge">
<title>ReactiveFormsModule&#45;&gt;AppModule</title>
<path fill="none" stroke="#000000" d="M1500,-122.2843C1500,-143.3211 1500,-175 1500,-175 1500,-175 4259.0819,-175 4259.0819,-175"/>
<polygon fill="#000000" stroke="#000000" points="4259.0819,-178.5001 4269.0819,-175 4259.0818,-171.5001 4259.0819,-178.5001"/>
</g>
<!-- ColorPickerModule -->
<g id="node46" class="node">
<title>ColorPickerModule</title>
<polygon fill="#8dd3c7" stroke="#000000" points="1409.7008,-122 1406.7008,-126 1385.7008,-126 1382.7008,-122 1282.2992,-122 1282.2992,-86 1409.7008,-86 1409.7008,-122"/>
<text text-anchor="middle" x="1346" y="-99.8" font-family="Times,serif" font-size="14.00" fill="#000000">ColorPickerModule</text>
</g>
<!-- ColorPickerModule&#45;&gt;AppModule -->
<g id="edge45" class="edge">
<title>ColorPickerModule&#45;&gt;AppModule</title>
<path fill="none" stroke="#000000" d="M1346,-122.1686C1346,-143.498 1346,-176 1346,-176 1346,-176 4259.0858,-176 4259.0858,-176"/>
<polygon fill="#000000" stroke="#000000" points="4259.0859,-179.5001 4269.0858,-176 4259.0858,-172.5001 4259.0859,-179.5001"/>
</g>
<!-- NotifierModule -->
<g id="node47" class="node">
<title>NotifierModule</title>
<polygon fill="#8dd3c7" stroke="#000000" points="1263.8641,-122 1260.8641,-126 1239.8641,-126 1236.8641,-122 1160.1359,-122 1160.1359,-86 1263.8641,-86 1263.8641,-122"/>
<text text-anchor="middle" x="1212" y="-99.8" font-family="Times,serif" font-size="14.00" fill="#000000">NotifierModule</text>
</g>
<!-- NotifierModule&#45;&gt;AppModule -->
<g id="edge46" class="edge">
<title>NotifierModule&#45;&gt;AppModule</title>
<path fill="none" stroke="#000000" d="M1212,-122.2921C1212,-144.2057 1212,-178 1212,-178 1212,-178 4259.2454,-178 4259.2454,-178"/>
<polygon fill="#000000" stroke="#000000" points="4259.2454,-181.5001 4269.2454,-178 4259.2454,-174.5001 4259.2454,-181.5001"/>
</g>
<!-- FlexLayoutModule -->
<g id="node48" class="node">
<title>FlexLayoutModule</title>
<polygon fill="#8dd3c7" stroke="#000000" points="1142.0954,-122 1139.0954,-126 1118.0954,-126 1115.0954,-122 1017.9046,-122 1017.9046,-86 1142.0954,-86 1142.0954,-122"/>
<text text-anchor="middle" x="1080" y="-99.8" font-family="Times,serif" font-size="14.00" fill="#000000">FlexLayoutModule</text>
</g>
<!-- FlexLayoutModule&#45;&gt;AppModule -->
<g id="edge47" class="edge">
<title>FlexLayoutModule&#45;&gt;AppModule</title>
<path fill="none" stroke="#000000" d="M1080,-122.1554C1080,-144.3519 1080,-179 1080,-179 1080,-179 4259.2634,-179 4259.2634,-179"/>
<polygon fill="#000000" stroke="#000000" points="4259.2635,-182.5001 4269.2634,-179 4259.2634,-175.5001 4259.2635,-182.5001"/>
</g>
<!-- TranslateModule.forRoot(args) -->
<g id="node49" class="node">
<title>TranslateModule.forRoot(args)</title>
<polygon fill="#8dd3c7" stroke="#000000" points="999.8223,-122 996.8223,-126 975.8223,-126 972.8223,-122 808.1777,-122 808.1777,-86 999.8223,-86 999.8223,-122"/>
<text text-anchor="middle" x="904" y="-99.8" font-family="Times,serif" font-size="14.00" fill="#000000">TranslateModule.forRoot(args)</text>
</g>
<!-- TranslateModule.forRoot(args)&#45;&gt;AppModule -->
<g id="edge48" class="edge">
<title>TranslateModule.forRoot(args)&#45;&gt;AppModule</title>
<path fill="none" stroke="#000000" d="M904,-122.2479C904,-145.0179 904,-181 904,-181 904,-181 4259.1521,-181 4259.1521,-181"/>
<polygon fill="#000000" stroke="#000000" points="4259.1521,-184.5001 4269.1521,-181 4259.1521,-177.5001 4259.1521,-184.5001"/>
</g>
<!-- ShContextMenuModule -->
<g id="node50" class="node">
<title>ShContextMenuModule</title>
<polygon fill="#8dd3c7" stroke="#000000" points="790.8243,-122 787.8243,-126 766.8243,-126 763.8243,-122 639.1757,-122 639.1757,-86 790.8243,-86 790.8243,-122"/>
<text text-anchor="middle" x="715" y="-99.8" font-family="Times,serif" font-size="14.00" fill="#000000">ShContextMenuModule</text>
</g>
<!-- ShContextMenuModule&#45;&gt;AppModule -->
<g id="edge49" class="edge">
<title>ShContextMenuModule&#45;&gt;AppModule</title>
<path fill="none" stroke="#000000" d="M715,-122.0908C715,-145.1328 715,-182 715,-182 715,-182 4259.0579,-182 4259.0579,-182"/>
<polygon fill="#000000" stroke="#000000" points="4259.058,-185.5001 4269.0579,-182 4259.0579,-178.5001 4259.058,-185.5001"/>
</g>
<!-- StorageServiceService -->
<g id="node52" class="node">
<title>StorageServiceService</title>
<ellipse fill="#fdb462" stroke="#000000" cx="517" cy="-104" rx="98.3889" ry="18"/>
<text text-anchor="middle" x="517" y="-99.8" font-family="Times,serif" font-size="14.00" fill="#000000">StorageServiceService</text>
</g>
<!-- StorageServiceService&#45;&gt;AppModule -->
<g id="edge51" class="edge">
<title>StorageServiceService&#45;&gt;AppModule</title>
<path fill="none" stroke="#000000" d="M517,-122.3228C517,-145.6602 517,-183 517,-183 517,-183 4259.0405,-183 4259.0405,-183"/>
<polygon fill="#000000" stroke="#000000" points="4259.0405,-186.5001 4269.0405,-183 4259.0405,-179.5001 4259.0405,-186.5001"/>
</g>
<!-- BackendApiService -->
<g id="node53" class="node">
<title>BackendApiService</title>
<ellipse fill="#fdb462" stroke="#000000" cx="312" cy="-104" rx="88.023" ry="18"/>
<text text-anchor="middle" x="312" y="-99.8" font-family="Times,serif" font-size="14.00" fill="#000000">BackendApiService</text>
</g>
<!-- BackendApiService&#45;&gt;AppModule -->
<g id="edge52" class="edge">
<title>BackendApiService&#45;&gt;AppModule</title>
<path fill="none" stroke="#000000" d="M312,-122.3802C312,-146.2785 312,-185 312,-185 312,-185 4259.1277,-185 4259.1277,-185"/>
<polygon fill="#000000" stroke="#000000" points="4259.1278,-188.5001 4269.1277,-185 4259.1277,-181.5001 4259.1278,-188.5001"/>
</g>
<!-- manageCompHelper -->
<g id="node54" class="node">
<title>manageCompHelper</title>
<ellipse fill="#fdb462" stroke="#000000" cx="115" cy="-104" rx="90.8935" ry="18"/>
<text text-anchor="middle" x="115" y="-99.8" font-family="Times,serif" font-size="14.00" fill="#000000">manageCompHelper</text>
</g>
<!-- manageCompHelper&#45;&gt;AppModule -->
<g id="edge53" class="edge">
<title>manageCompHelper&#45;&gt;AppModule</title>
<path fill="none" stroke="#000000" d="M115,-122.1985C115,-146.3563 115,-186 115,-186 115,-186 4259.131,-186 4259.131,-186"/>
<polygon fill="#000000" stroke="#000000" points="4259.131,-189.5001 4269.131,-186 4259.131,-182.5001 4259.131,-189.5001"/>
</g>
</g>
</svg>
