<?xml version="1.0" encoding="utf-8"?>
<!-- Generator: Adobe Illustrator 23.1.1, SVG Export Plug-In . SVG Version: 6.00 Build 0)  -->
<svg version="1.1" id="Calque_1" xmlns="http://www.w3.org/2000/svg" xmlns:xlink="http://www.w3.org/1999/xlink" x="0px" y="0px"
	 viewBox="0 0 28.4 19.5" style="enable-background:new 0 0 28.4 19.5;" xml:space="preserve">
<style type="text/css">
	.st0{fill:#023F5F;}
</style>
<g id="Groupe_1910" transform="translate(0 0)">
	<path id="Tracé_1076" class="st0" d="M27.7,8.8h-27C0.3,8.8,0,9.1,0,9.5c0,0,0,0,0,0v9.3c0,0.4,0.3,0.7,0.7,0.7l0,0h27
		c0.4,0,0.7-0.3,0.7-0.7c0,0,0,0,0,0V9.5C28.4,9.1,28,8.8,27.7,8.8L27.7,8.8z M27,18.1H1.4v-7.9h1.9v2.5c0,0.4,0.3,0.7,0.7,0.7
		c0.4,0,0.7-0.3,0.7-0.7v-2.5h1.8v2.5c0,0.4,0.3,0.7,0.7,0.7c0.4,0,0.7-0.3,0.7-0.7v-2.5h1.8v4.8c0,0.4,0.3,0.7,0.7,0.7
		c0.4,0,0.7-0.3,0.7-0.7v-4.8h1.8v2.5c0,0.4,0.3,0.7,0.7,0.7c0.4,0,0.7-0.3,0.7-0.7v-2.5h1.8v2.5c0,0.4,0.3,0.7,0.7,0.7
		c0.4,0,0.7-0.3,0.7-0.7v-2.5h1.8v4.8c0,0.4,0.3,0.7,0.7,0.7c0.4,0,0.7-0.3,0.7-0.7v-4.8h1.8v2.5c0,0.4,0.3,0.7,0.7,0.7
		c0.4,0,0.7-0.3,0.7-0.7v-2.5h3L27,18.1z"/>
	<path id="Tracé_1077" class="st0" d="M4.5,7.3c0.4,0,0.7-0.3,0.7-0.7c0,0,0,0,0,0V4.4h17.9c0,0,0,0,0,0v2.2c0,0.4,0.3,0.7,0.7,0.7
		c0.4,0,0.7-0.3,0.7-0.7V0.7c0-0.4-0.3-0.7-0.7-0.7c-0.4,0-0.7,0.3-0.7,0.7v2.2c0,0,0,0,0,0H5.2V0.7C5.2,0.3,4.9,0,4.5,0
		C4.1,0,3.8,0.3,3.8,0.7v5.9C3.8,7,4.1,7.3,4.5,7.3C4.5,7.3,4.5,7.3,4.5,7.3z"/>
</g>
</svg>
