<?xml version="1.0" encoding="utf-8"?>
<!-- Generator: Adobe Illustrator 23.1.1, SVG Export Plug-In . SVG Version: 6.00 Build 0)  -->
<svg version="1.1" id="Calque_1" xmlns="http://www.w3.org/2000/svg" xmlns:xlink="http://www.w3.org/1999/xlink" x="0px" y="0px"
	 viewBox="0 0 34.3 14.4" style="enable-background:new 0 0 34.3 14.4;" xml:space="preserve">
<style type="text/css">
	.st0{fill:#023F5F;}
</style>
<g>
	<path class="st0" d="M34,2.9l-2.7-2.7C31.2,0.1,31,0,30.8,0c-0.2,0-0.4,0.1-0.5,0.2L20,10.6v3.7h3.8L34,4c0.1-0.1,0.2-0.3,0.2-0.5
		C34.3,3.2,34.2,3,34,2.9z"/>
	<path class="st0" d="M2,2c0-0.6-0.4-1-1-1C0.4,1,0,1.4,0,2v8.4c0,0.6,0.4,1,1,1c0.6,0,1-0.4,1-1V7.2h17.2c0-0.7,0.1-1.3,0.2-2H2V2z
		"/>
</g>
</svg>
