<?xml version="1.0" encoding="utf-8"?>
<!-- Generator: Adobe Illustrator 23.1.1, SVG Export Plug-In . SVG Version: 6.00 Build 0)  -->
<svg version="1.1" id="Calque_1" xmlns="http://www.w3.org/2000/svg" xmlns:xlink="http://www.w3.org/1999/xlink" x="0px" y="0px"
	 viewBox="0 0 20.3 20.3" style="enable-background:new 0 0 20.3 20.3;" xml:space="preserve">
<style type="text/css">
	.st0{fill:#023F5F;}
</style>
<path id="Tracé_1071" class="st0" d="M19.2,4.1c0.6,0,1.1-0.5,1.1-1.1v-2c0-0.6-0.5-1.1-1.1-1.1h-2c-0.6,0-1.1,0.5-1.1,1.1v0.3H4.1
	V1.1C4.1,0.5,3.6,0,3,0h-2C0.5,0,0,0.5,0,1.1v2c0,0.6,0.5,1.1,1.1,1.1h0.3v12.1H1.1c-0.6,0-1.1,0.5-1.1,1.1v2c0,0.6,0.5,1.1,1.1,1.1
	h2c0.6,0,1.1-0.5,1.1-1.1v-0.3h12.1v0.3c0,0.6,0.5,1.1,1.1,1.1h2c0.6,0,1.1-0.5,1.1-1.1v-2c0-0.6-0.5-1.1-1.1-1.1h-0.3V4.1H19.2z
	 M17.3,1.1h2v2h-2V1.1z M1.1,3v-2h2v2H1.1z M3,19.2h-2v-2h2V19.2z M19.2,17.3v2h-2v-2H19.2z M17.5,16.2h-0.3c-0.6,0-1.1,0.5-1.1,1.1
	v0.3H4.1v-0.3c0-0.6-0.5-1.1-1.1-1.1H2.7V4.1H3c0.6,0,1.1-0.5,1.1-1.1V2.7h12.1V3c0,0.6,0.5,1.1,1.1,1.1h0.3V16.2z"/>
</svg>
