<?xml version="1.0" encoding="UTF-8" standalone="no"?>
<!DOCTYPE svg PUBLIC "-//W3C//DTD SVG 1.1//EN"
 "http://www.w3.org/Graphics/SVG/1.1/DTD/svg11.dtd">
<!-- Generated by graphviz version 2.40.1 (20161225.0304)
 -->
<!-- Title: dependencies Pages: 1 -->
<svg width="3909pt" height="211pt"
 viewBox="0.00 0.00 3909.00 211.00" xmlns="http://www.w3.org/2000/svg" xmlns:xlink="http://www.w3.org/1999/xlink">
<g id="graph0" class="graph" transform="scale(1 1) rotate(0) translate(4 207)">
<title>dependencies</title>
<polygon fill="#ffffff" stroke="transparent" points="-4,4 -4,-207 3905,-207 3905,4 -4,4"/>
<text text-anchor="start" x="1929.5091" y="-42.4" font-family="sans-serif" font-weight="bold" font-size="14.00" fill="#000000">Legend</text>
<polygon fill="#ffffb3" stroke="transparent" points="1716.5,-10 1716.5,-30 1736.5,-30 1736.5,-10 1716.5,-10"/>
<text text-anchor="start" x="1740.129" y="-15.4" font-family="sans-serif" font-size="14.00" fill="#000000"> &#160;Declarations</text>
<polygon fill="#8dd3c7" stroke="transparent" points="1829.5,-10 1829.5,-30 1849.5,-30 1849.5,-10 1829.5,-10"/>
<text text-anchor="start" x="1853.2251" y="-15.4" font-family="sans-serif" font-size="14.00" fill="#000000"> &#160;Module</text>
<polygon fill="#80b1d3" stroke="transparent" points="1915.5,-10 1915.5,-30 1935.5,-30 1935.5,-10 1915.5,-10"/>
<text text-anchor="start" x="1939.2812" y="-15.4" font-family="sans-serif" font-size="14.00" fill="#000000"> &#160;Bootstrap</text>
<polygon fill="#fdb462" stroke="transparent" points="2012.5,-10 2012.5,-30 2032.5,-30 2032.5,-10 2012.5,-10"/>
<text text-anchor="start" x="2036.1732" y="-15.4" font-family="sans-serif" font-size="14.00" fill="#000000"> &#160;Providers</text>
<polygon fill="#fb8072" stroke="transparent" points="2108.5,-10 2108.5,-30 2128.5,-30 2128.5,-10 2108.5,-10"/>
<text text-anchor="start" x="2132.2258" y="-15.4" font-family="sans-serif" font-size="14.00" fill="#000000"> &#160;Exports</text>
<g id="clust1" class="cluster">
<title>cluster_ComponentMaterialModule</title>
<polygon fill="none" stroke="#000000" stroke-dasharray="1,5" points="8,-70 8,-195 3893,-195 3893,-70 8,-70"/>
</g>
<g id="clust4" class="cluster">
<title>cluster_ComponentMaterialModule_exports</title>
<polygon fill="none" stroke="#000000" points="16,-135 16,-187 3885,-187 3885,-135 16,-135"/>
</g>
<!-- A11yModule  -->
<g id="node1" class="node">
<title>A11yModule </title>
<polygon fill="#fb8072" stroke="#000000" points="3877.1565,-179 3782.8435,-179 3782.8435,-143 3877.1565,-143 3877.1565,-179"/>
<text text-anchor="middle" x="3830" y="-156.8" font-family="Times,serif" font-size="14.00" fill="#000000">A11yModule </text>
</g>
<!-- CdkStepperModule  -->
<g id="node2" class="node">
<title>CdkStepperModule </title>
<polygon fill="#fb8072" stroke="#000000" points="3764.6495,-179 3635.3505,-179 3635.3505,-143 3764.6495,-143 3764.6495,-179"/>
<text text-anchor="middle" x="3700" y="-156.8" font-family="Times,serif" font-size="14.00" fill="#000000">CdkStepperModule </text>
</g>
<!-- CdkTableModule  -->
<g id="node3" class="node">
<title>CdkTableModule </title>
<polygon fill="#fb8072" stroke="#000000" points="3617.2591,-179 3498.7409,-179 3498.7409,-143 3617.2591,-143 3617.2591,-179"/>
<text text-anchor="middle" x="3558" y="-156.8" font-family="Times,serif" font-size="14.00" fill="#000000">CdkTableModule </text>
</g>
<!-- CdkTreeModule  -->
<g id="node4" class="node">
<title>CdkTreeModule </title>
<polygon fill="#fb8072" stroke="#000000" points="3481.0288,-179 3368.9712,-179 3368.9712,-143 3481.0288,-143 3481.0288,-179"/>
<text text-anchor="middle" x="3425" y="-156.8" font-family="Times,serif" font-size="14.00" fill="#000000">CdkTreeModule </text>
</g>
<!-- DragDropModule  -->
<g id="node5" class="node">
<title>DragDropModule </title>
<polygon fill="#fb8072" stroke="#000000" points="3350.799,-179 3231.201,-179 3231.201,-143 3350.799,-143 3350.799,-179"/>
<text text-anchor="middle" x="3291" y="-156.8" font-family="Times,serif" font-size="14.00" fill="#000000">DragDropModule </text>
</g>
<!-- MatSnackBarModule  -->
<g id="node6" class="node">
<title>MatSnackBarModule </title>
<polygon fill="#fb8072" stroke="#000000" points="3213.0232,-179 3072.9768,-179 3072.9768,-143 3213.0232,-143 3213.0232,-179"/>
<text text-anchor="middle" x="3143" y="-156.8" font-family="Times,serif" font-size="14.00" fill="#000000">MatSnackBarModule </text>
</g>
<!-- MatMenuModule  -->
<g id="node7" class="node">
<title>MatMenuModule </title>
<polygon fill="#fb8072" stroke="#000000" points="3055.2591,-179 2936.7409,-179 2936.7409,-143 3055.2591,-143 3055.2591,-179"/>
<text text-anchor="middle" x="2996" y="-156.8" font-family="Times,serif" font-size="14.00" fill="#000000">MatMenuModule </text>
</g>
<!-- MatCardModule  -->
<g id="node8" class="node">
<title>MatCardModule </title>
<polygon fill="#fb8072" stroke="#000000" points="2918.3116,-179 2805.6884,-179 2805.6884,-143 2918.3116,-143 2918.3116,-179"/>
<text text-anchor="middle" x="2862" y="-156.8" font-family="Times,serif" font-size="14.00" fill="#000000">MatCardModule </text>
</g>
<!-- MatSidenavModule  -->
<g id="node9" class="node">
<title>MatSidenavModule </title>
<polygon fill="#fb8072" stroke="#000000" points="2787.2023,-179 2656.7977,-179 2656.7977,-143 2787.2023,-143 2787.2023,-179"/>
<text text-anchor="middle" x="2722" y="-156.8" font-family="Times,serif" font-size="14.00" fill="#000000">MatSidenavModule </text>
</g>
<!-- MatCheckboxModule  -->
<g id="node10" class="node">
<title>MatCheckboxModule </title>
<polygon fill="#fb8072" stroke="#000000" points="2638.3659,-179 2495.6341,-179 2495.6341,-143 2638.3659,-143 2638.3659,-179"/>
<text text-anchor="middle" x="2567" y="-156.8" font-family="Times,serif" font-size="14.00" fill="#000000">MatCheckboxModule </text>
</g>
<!-- MatButtonModule  -->
<g id="node11" class="node">
<title>MatButtonModule </title>
<polygon fill="#fb8072" stroke="#000000" points="2477.7177,-179 2354.2823,-179 2354.2823,-143 2477.7177,-143 2477.7177,-179"/>
<text text-anchor="middle" x="2416" y="-156.8" font-family="Times,serif" font-size="14.00" fill="#000000">MatButtonModule </text>
</g>
<!-- MatTooltipModule  -->
<g id="node12" class="node">
<title>MatTooltipModule </title>
<polygon fill="#fb8072" stroke="#000000" points="2336.3241,-179 2209.6759,-179 2209.6759,-143 2336.3241,-143 2336.3241,-179"/>
<text text-anchor="middle" x="2273" y="-156.8" font-family="Times,serif" font-size="14.00" fill="#000000">MatTooltipModule </text>
</g>
<!-- PortalModule  -->
<g id="node13" class="node">
<title>PortalModule </title>
<polygon fill="#fb8072" stroke="#000000" points="2191.49,-179 2094.51,-179 2094.51,-143 2191.49,-143 2191.49,-179"/>
<text text-anchor="middle" x="2143" y="-156.8" font-family="Times,serif" font-size="14.00" fill="#000000">PortalModule </text>
</g>
<!-- ScrollingModule  -->
<g id="node14" class="node">
<title>ScrollingModule </title>
<polygon fill="#fb8072" stroke="#000000" points="2077.38,-179 1962.62,-179 1962.62,-143 2077.38,-143 2077.38,-179"/>
<text text-anchor="middle" x="2020" y="-156.8" font-family="Times,serif" font-size="14.00" fill="#000000">ScrollingModule </text>
</g>
<!-- MatExpansionModule  -->
<g id="node15" class="node">
<title>MatExpansionModule </title>
<polygon fill="#fb8072" stroke="#000000" points="1944.2023,-179 1799.7977,-179 1799.7977,-143 1944.2023,-143 1944.2023,-179"/>
<text text-anchor="middle" x="1872" y="-156.8" font-family="Times,serif" font-size="14.00" fill="#000000">MatExpansionModule </text>
</g>
<!-- MatInputModule  -->
<g id="node16" class="node">
<title>MatInputModule </title>
<polygon fill="#fb8072" stroke="#000000" points="1781.6509,-179 1666.3491,-179 1666.3491,-143 1781.6509,-143 1781.6509,-179"/>
<text text-anchor="middle" x="1724" y="-156.8" font-family="Times,serif" font-size="14.00" fill="#000000">MatInputModule </text>
</g>
<!-- MatFormFieldModule  -->
<g id="node17" class="node">
<title>MatFormFieldModule </title>
<polygon fill="#fb8072" stroke="#000000" points="1648.2121,-179 1503.7879,-179 1503.7879,-143 1648.2121,-143 1648.2121,-179"/>
<text text-anchor="middle" x="1576" y="-156.8" font-family="Times,serif" font-size="14.00" fill="#000000">MatFormFieldModule </text>
</g>
<!-- MatSliderModule  -->
<g id="node18" class="node">
<title>MatSliderModule </title>
<polygon fill="#fb8072" stroke="#000000" points="1485.5386,-179 1366.4614,-179 1366.4614,-143 1485.5386,-143 1485.5386,-179"/>
<text text-anchor="middle" x="1426" y="-156.8" font-family="Times,serif" font-size="14.00" fill="#000000">MatSliderModule </text>
</g>
<!-- MatChipsModule  -->
<g id="node19" class="node">
<title>MatChipsModule </title>
<polygon fill="#fb8072" stroke="#000000" points="1348.2717,-179 1229.7283,-179 1229.7283,-143 1348.2717,-143 1348.2717,-179"/>
<text text-anchor="middle" x="1289" y="-156.8" font-family="Times,serif" font-size="14.00" fill="#000000">MatChipsModule </text>
</g>
<!-- MatBadgeModule  -->
<g id="node20" class="node">
<title>MatBadgeModule </title>
<polygon fill="#fb8072" stroke="#000000" points="1211.866,-179 1090.134,-179 1090.134,-143 1211.866,-143 1211.866,-179"/>
<text text-anchor="middle" x="1151" y="-156.8" font-family="Times,serif" font-size="14.00" fill="#000000">MatBadgeModule </text>
</g>
<!-- MatDialogModule  -->
<g id="node21" class="node">
<title>MatDialogModule </title>
<polygon fill="#fb8072" stroke="#000000" points="1071.7024,-179 948.2976,-179 948.2976,-143 1071.7024,-143 1071.7024,-179"/>
<text text-anchor="middle" x="1010" y="-156.8" font-family="Times,serif" font-size="14.00" fill="#000000">MatDialogModule </text>
</g>
<!-- MatTabsModule  -->
<g id="node22" class="node">
<title>MatTabsModule </title>
<polygon fill="#fb8072" stroke="#000000" points="930.3116,-179 817.6884,-179 817.6884,-143 930.3116,-143 930.3116,-179"/>
<text text-anchor="middle" x="874" y="-156.8" font-family="Times,serif" font-size="14.00" fill="#000000">MatTabsModule </text>
</g>
<!-- MatListModule  -->
<g id="node23" class="node">
<title>MatListModule </title>
<polygon fill="#fb8072" stroke="#000000" points="799.8787,-179 692.1213,-179 692.1213,-143 799.8787,-143 799.8787,-179"/>
<text text-anchor="middle" x="746" y="-156.8" font-family="Times,serif" font-size="14.00" fill="#000000">MatListModule </text>
</g>
<!-- MatAutocompleteModule  -->
<g id="node24" class="node">
<title>MatAutocompleteModule </title>
<polygon fill="#fb8072" stroke="#000000" points="674.4124,-179 509.5876,-179 509.5876,-143 674.4124,-143 674.4124,-179"/>
<text text-anchor="middle" x="592" y="-156.8" font-family="Times,serif" font-size="14.00" fill="#000000">MatAutocompleteModule </text>
</g>
<!-- MatSlideToggleModule  -->
<g id="node25" class="node">
<title>MatSlideToggleModule </title>
<polygon fill="#fb8072" stroke="#000000" points="492.0358,-179 337.9642,-179 337.9642,-143 492.0358,-143 492.0358,-179"/>
<text text-anchor="middle" x="415" y="-156.8" font-family="Times,serif" font-size="14.00" fill="#000000">MatSlideToggleModule </text>
</g>
<!-- MatSelectModule  -->
<g id="node26" class="node">
<title>MatSelectModule </title>
<polygon fill="#fb8072" stroke="#000000" points="319.8074,-179 200.1926,-179 200.1926,-143 319.8074,-143 319.8074,-179"/>
<text text-anchor="middle" x="260" y="-156.8" font-family="Times,serif" font-size="14.00" fill="#000000">MatSelectModule </text>
</g>
<!-- MatBottomSheetModule  -->
<g id="node27" class="node">
<title>MatBottomSheetModule </title>
<polygon fill="#fb8072" stroke="#000000" points="182.2107,-179 23.7893,-179 23.7893,-143 182.2107,-143 182.2107,-179"/>
<text text-anchor="middle" x="103" y="-156.8" font-family="Times,serif" font-size="14.00" fill="#000000">MatBottomSheetModule </text>
</g>
<!-- ComponentMaterialModule -->
<g id="node28" class="node">
<title>ComponentMaterialModule</title>
<polygon fill="#8dd3c7" stroke="#000000" points="2106.3033,-114 2103.3033,-118 2082.3033,-118 2079.3033,-114 1933.6967,-114 1933.6967,-78 2106.3033,-78 2106.3033,-114"/>
<text text-anchor="middle" x="2020" y="-91.8" font-family="Times,serif" font-size="14.00" fill="#000000">ComponentMaterialModule</text>
</g>
<!-- ComponentMaterialModule&#45;&gt;A11yModule  -->
<g id="edge1" class="edge">
<title>ComponentMaterialModule&#45;&gt;A11yModule </title>
<path fill="none" stroke="#000000" stroke-dasharray="5,2" d="M2106.3861,-81C2466.5542,-81 3830,-81 3830,-81 3830,-81 3830,-132.8468 3830,-132.8468"/>
<polygon fill="#000000" stroke="#000000" points="3826.5001,-132.8467 3830,-142.8468 3833.5001,-132.8468 3826.5001,-132.8467"/>
</g>
<!-- ComponentMaterialModule&#45;&gt;CdkStepperModule  -->
<g id="edge2" class="edge">
<title>ComponentMaterialModule&#45;&gt;CdkStepperModule </title>
<path fill="none" stroke="#000000" stroke-dasharray="5,2" d="M2106.2029,-84C2449.3883,-84 3700,-84 3700,-84 3700,-84 3700,-132.7521 3700,-132.7521"/>
<polygon fill="#000000" stroke="#000000" points="3696.5001,-132.752 3700,-142.7521 3703.5001,-132.7521 3696.5001,-132.752"/>
</g>
<!-- ComponentMaterialModule&#45;&gt;CdkTableModule  -->
<g id="edge3" class="edge">
<title>ComponentMaterialModule&#45;&gt;CdkTableModule </title>
<path fill="none" stroke="#000000" stroke-dasharray="5,2" d="M2106.2623,-87C2430.5223,-87 3558,-87 3558,-87 3558,-87 3558,-132.7079 3558,-132.7079"/>
<polygon fill="#000000" stroke="#000000" points="3554.5001,-132.7078 3558,-142.7079 3561.5001,-132.7079 3554.5001,-132.7078"/>
</g>
<!-- ComponentMaterialModule&#45;&gt;CdkTreeModule  -->
<g id="edge4" class="edge">
<title>ComponentMaterialModule&#45;&gt;CdkTreeModule </title>
<path fill="none" stroke="#000000" stroke-dasharray="5,2" d="M2106.3007,-90C2411.9857,-90 3425,-90 3425,-90 3425,-90 3425,-132.7157 3425,-132.7157"/>
<polygon fill="#000000" stroke="#000000" points="3421.5001,-132.7157 3425,-142.7157 3428.5001,-132.7158 3421.5001,-132.7157"/>
</g>
<!-- ComponentMaterialModule&#45;&gt;DragDropModule  -->
<g id="edge5" class="edge">
<title>ComponentMaterialModule&#45;&gt;DragDropModule </title>
<path fill="none" stroke="#000000" stroke-dasharray="5,2" d="M2106.3617,-92C2392.4299,-92 3291,-92 3291,-92 3291,-92 3291,-132.8711 3291,-132.8711"/>
<polygon fill="#000000" stroke="#000000" points="3287.5001,-132.871 3291,-142.8711 3294.5001,-132.8711 3287.5001,-132.871"/>
</g>
<!-- ComponentMaterialModule&#45;&gt;MatSnackBarModule  -->
<g id="edge6" class="edge">
<title>ComponentMaterialModule&#45;&gt;MatSnackBarModule </title>
<path fill="none" stroke="#000000" stroke-dasharray="5,2" d="M2106.2552,-95C2369.2197,-95 3143,-95 3143,-95 3143,-95 3143,-132.9652 3143,-132.9652"/>
<polygon fill="#000000" stroke="#000000" points="3139.5001,-132.9652 3143,-142.9652 3146.5001,-132.9652 3139.5001,-132.9652"/>
</g>
<!-- ComponentMaterialModule&#45;&gt;MatMenuModule  -->
<g id="edge7" class="edge">
<title>ComponentMaterialModule&#45;&gt;MatMenuModule </title>
<path fill="none" stroke="#000000" stroke-dasharray="5,2" d="M2106.1853,-98C2344.6989,-98 2996,-98 2996,-98 2996,-98 2996,-132.7778 2996,-132.7778"/>
<polygon fill="#000000" stroke="#000000" points="2992.5001,-132.7778 2996,-142.7778 2999.5001,-132.7778 2992.5001,-132.7778"/>
</g>
<!-- ComponentMaterialModule&#45;&gt;MatCardModule  -->
<g id="edge8" class="edge">
<title>ComponentMaterialModule&#45;&gt;MatCardModule </title>
<path fill="none" stroke="#000000" stroke-dasharray="5,2" d="M2106.1518,-101C2320.7493,-101 2862,-101 2862,-101 2862,-101 2862,-132.998 2862,-132.998"/>
<polygon fill="#000000" stroke="#000000" points="2858.5001,-132.998 2862,-142.998 2865.5001,-132.9981 2858.5001,-132.998"/>
</g>
<!-- ComponentMaterialModule&#45;&gt;MatSidenavModule  -->
<g id="edge9" class="edge">
<title>ComponentMaterialModule&#45;&gt;MatSidenavModule </title>
<path fill="none" stroke="#000000" stroke-dasharray="5,2" d="M2106.4307,-103C2294.0686,-103 2722,-103 2722,-103 2722,-103 2722,-132.9664 2722,-132.9664"/>
<polygon fill="#000000" stroke="#000000" points="2718.5001,-132.9663 2722,-142.9664 2725.5001,-132.9664 2718.5001,-132.9663"/>
</g>
<!-- ComponentMaterialModule&#45;&gt;MatCheckboxModule  -->
<g id="edge10" class="edge">
<title>ComponentMaterialModule&#45;&gt;MatCheckboxModule </title>
<path fill="none" stroke="#000000" stroke-dasharray="5,2" d="M2106.3719,-106C2260.5132,-106 2567,-106 2567,-106 2567,-106 2567,-132.9909 2567,-132.9909"/>
<polygon fill="#000000" stroke="#000000" points="2563.5001,-132.9909 2567,-142.9909 2570.5001,-132.991 2563.5001,-132.9909"/>
</g>
<!-- ComponentMaterialModule&#45;&gt;MatButtonModule  -->
<g id="edge11" class="edge">
<title>ComponentMaterialModule&#45;&gt;MatButtonModule </title>
<path fill="none" stroke="#000000" stroke-dasharray="5,2" d="M2106.4145,-109C2222.9333,-109 2416,-109 2416,-109 2416,-109 2416,-132.8129 2416,-132.8129"/>
<polygon fill="#000000" stroke="#000000" points="2412.5001,-132.8129 2416,-142.8129 2419.5001,-132.813 2412.5001,-132.8129"/>
</g>
<!-- ComponentMaterialModule&#45;&gt;MatTooltipModule  -->
<g id="edge12" class="edge">
<title>ComponentMaterialModule&#45;&gt;MatTooltipModule </title>
<path fill="none" stroke="#000000" stroke-dasharray="5,2" d="M2106.3606,-112C2179.6528,-112 2273,-112 2273,-112 2273,-112 2273,-132.7542 2273,-132.7542"/>
<polygon fill="#000000" stroke="#000000" points="2269.5001,-132.7542 2273,-142.7542 2276.5001,-132.7542 2269.5001,-132.7542"/>
</g>
<!-- ComponentMaterialModule&#45;&gt;PortalModule  -->
<g id="edge13" class="edge">
<title>ComponentMaterialModule&#45;&gt;PortalModule </title>
<path fill="none" stroke="#000000" stroke-dasharray="5,2" d="M2100.4536,-114.1061C2100.4536,-114.1061 2100.4536,-132.991 2100.4536,-132.991"/>
<polygon fill="#000000" stroke="#000000" points="2096.9536,-132.9909 2100.4536,-142.991 2103.9536,-132.991 2096.9536,-132.9909"/>
</g>
<!-- ComponentMaterialModule&#45;&gt;ScrollingModule  -->
<g id="edge14" class="edge">
<title>ComponentMaterialModule&#45;&gt;ScrollingModule </title>
<path fill="none" stroke="#000000" stroke-dasharray="5,2" d="M2020,-114.1061C2020,-114.1061 2020,-132.991 2020,-132.991"/>
<polygon fill="#000000" stroke="#000000" points="2016.5001,-132.9909 2020,-142.991 2023.5001,-132.991 2016.5001,-132.9909"/>
</g>
<!-- ComponentMaterialModule&#45;&gt;MatExpansionModule  -->
<g id="edge15" class="edge">
<title>ComponentMaterialModule&#45;&gt;MatExpansionModule </title>
<path fill="none" stroke="#000000" stroke-dasharray="5,2" d="M1939.0998,-114.1061C1939.0998,-114.1061 1939.0998,-132.991 1939.0998,-132.991"/>
<polygon fill="#000000" stroke="#000000" points="1935.5998,-132.9909 1939.0998,-142.991 1942.5998,-132.991 1935.5998,-132.9909"/>
</g>
<!-- ComponentMaterialModule&#45;&gt;MatInputModule  -->
<g id="edge16" class="edge">
<title>ComponentMaterialModule&#45;&gt;MatInputModule </title>
<path fill="none" stroke="#000000" stroke-dasharray="5,2" d="M1933.5888,-112C1846.2204,-112 1724,-112 1724,-112 1724,-112 1724,-132.7542 1724,-132.7542"/>
<polygon fill="#000000" stroke="#000000" points="1720.5001,-132.7542 1724,-142.7542 1727.5001,-132.7542 1720.5001,-132.7542"/>
</g>
<!-- ComponentMaterialModule&#45;&gt;MatFormFieldModule  -->
<g id="edge17" class="edge">
<title>ComponentMaterialModule&#45;&gt;MatFormFieldModule </title>
<path fill="none" stroke="#000000" stroke-dasharray="5,2" d="M1933.6022,-109C1804.4371,-109 1576,-109 1576,-109 1576,-109 1576,-132.8129 1576,-132.8129"/>
<polygon fill="#000000" stroke="#000000" points="1572.5001,-132.8129 1576,-142.8129 1579.5001,-132.813 1572.5001,-132.8129"/>
</g>
<!-- ComponentMaterialModule&#45;&gt;MatSliderModule  -->
<g id="edge18" class="edge">
<title>ComponentMaterialModule&#45;&gt;MatSliderModule </title>
<path fill="none" stroke="#000000" stroke-dasharray="5,2" d="M1933.6273,-106C1768.8828,-106 1426,-106 1426,-106 1426,-106 1426,-132.9909 1426,-132.9909"/>
<polygon fill="#000000" stroke="#000000" points="1422.5001,-132.9909 1426,-142.9909 1429.5001,-132.991 1422.5001,-132.9909"/>
</g>
<!-- ComponentMaterialModule&#45;&gt;MatChipsModule  -->
<g id="edge19" class="edge">
<title>ComponentMaterialModule&#45;&gt;MatChipsModule </title>
<path fill="none" stroke="#000000" stroke-dasharray="5,2" d="M1933.6351,-103C1740.2005,-103 1289,-103 1289,-103 1289,-103 1289,-132.9664 1289,-132.9664"/>
<polygon fill="#000000" stroke="#000000" points="1285.5001,-132.9663 1289,-142.9664 1292.5001,-132.9664 1285.5001,-132.9663"/>
</g>
<!-- ComponentMaterialModule&#45;&gt;MatBadgeModule  -->
<g id="edge20" class="edge">
<title>ComponentMaterialModule&#45;&gt;MatBadgeModule </title>
<path fill="none" stroke="#000000" stroke-dasharray="5,2" d="M1933.5,-101C1713.6966,-101 1151,-101 1151,-101 1151,-101 1151,-132.998 1151,-132.998"/>
<polygon fill="#000000" stroke="#000000" points="1147.5001,-132.998 1151,-142.998 1154.5001,-132.9981 1147.5001,-132.998"/>
</g>
<!-- ComponentMaterialModule&#45;&gt;MatDialogModule  -->
<g id="edge21" class="edge">
<title>ComponentMaterialModule&#45;&gt;MatDialogModule </title>
<path fill="none" stroke="#000000" stroke-dasharray="5,2" d="M1933.4514,-98C1688.8329,-98 1010,-98 1010,-98 1010,-98 1010,-132.7778 1010,-132.7778"/>
<polygon fill="#000000" stroke="#000000" points="1006.5001,-132.7778 1010,-142.7778 1013.5001,-132.7778 1006.5001,-132.7778"/>
</g>
<!-- ComponentMaterialModule&#45;&gt;MatTabsModule  -->
<g id="edge22" class="edge">
<title>ComponentMaterialModule&#45;&gt;MatTabsModule </title>
<path fill="none" stroke="#000000" stroke-dasharray="5,2" d="M1933.394,-95C1666.4174,-95 874,-95 874,-95 874,-95 874,-132.9652 874,-132.9652"/>
<polygon fill="#000000" stroke="#000000" points="870.5001,-132.9652 874,-142.9652 877.5001,-132.9652 870.5001,-132.9652"/>
</g>
<!-- ComponentMaterialModule&#45;&gt;MatListModule  -->
<g id="edge23" class="edge">
<title>ComponentMaterialModule&#45;&gt;MatListModule </title>
<path fill="none" stroke="#000000" stroke-dasharray="5,2" d="M1933.4344,-92C1646.691,-92 746,-92 746,-92 746,-92 746,-132.8711 746,-132.8711"/>
<polygon fill="#000000" stroke="#000000" points="742.5001,-132.871 746,-142.8711 749.5001,-132.8711 742.5001,-132.871"/>
</g>
<!-- ComponentMaterialModule&#45;&gt;MatAutocompleteModule  -->
<g id="edge24" class="edge">
<title>ComponentMaterialModule&#45;&gt;MatAutocompleteModule </title>
<path fill="none" stroke="#000000" stroke-dasharray="5,2" d="M1933.622,-90C1624.5599,-90 592,-90 592,-90 592,-90 592,-132.7157 592,-132.7157"/>
<polygon fill="#000000" stroke="#000000" points="588.5001,-132.7157 592,-142.7157 595.5001,-132.7158 588.5001,-132.7157"/>
</g>
<!-- ComponentMaterialModule&#45;&gt;MatSlideToggleModule  -->
<g id="edge25" class="edge">
<title>ComponentMaterialModule&#45;&gt;MatSlideToggleModule </title>
<path fill="none" stroke="#000000" stroke-dasharray="5,2" d="M1933.7082,-87C1600.3333,-87 415,-87 415,-87 415,-87 415,-132.7079 415,-132.7079"/>
<polygon fill="#000000" stroke="#000000" points="411.5001,-132.7078 415,-142.7079 418.5001,-132.7079 411.5001,-132.7078"/>
</g>
<!-- ComponentMaterialModule&#45;&gt;MatSelectModule  -->
<g id="edge26" class="edge">
<title>ComponentMaterialModule&#45;&gt;MatSelectModule </title>
<path fill="none" stroke="#000000" stroke-dasharray="5,2" d="M1933.6211,-84C1579.8213,-84 260,-84 260,-84 260,-84 260,-132.7521 260,-132.7521"/>
<polygon fill="#000000" stroke="#000000" points="256.5001,-132.752 260,-142.7521 263.5001,-132.7521 256.5001,-132.752"/>
</g>
<!-- ComponentMaterialModule&#45;&gt;MatBottomSheetModule  -->
<g id="edge27" class="edge">
<title>ComponentMaterialModule&#45;&gt;MatBottomSheetModule </title>
<path fill="none" stroke="#000000" stroke-dasharray="5,2" d="M1933.5928,-81C1560.075,-81 103,-81 103,-81 103,-81 103,-132.8468 103,-132.8468"/>
<polygon fill="#000000" stroke="#000000" points="99.5001,-132.8467 103,-142.8468 106.5001,-132.8468 99.5001,-132.8467"/>
</g>
</g>
</svg>
